{
 "cells": [
  {
   "cell_type": "code",
   "execution_count": 1,
   "metadata": {},
   "outputs": [],
   "source": [
    "import cv2\n",
    "import h5py\n",
    "import matplotlib.pyplot as plt\n",
    "import numpy as np\n",
    "import os\n",
    "import pickle\n",
    "import shutil\n",
    "\n",
    "from tqdm import tqdm"
   ]
  },
  {
   "cell_type": "code",
   "execution_count": 3,
   "metadata": {},
   "outputs": [],
   "source": [
    "from tactile_learning.datasets import dump_video_to_images, get_closest_id\n",
    "from tactile_learning.utils.visualization import plot_tactile_sensor"
   ]
  },
  {
   "cell_type": "code",
   "execution_count": 4,
   "metadata": {},
   "outputs": [],
   "source": [
    "import decimal\n",
    "\n",
    "# Get the metadata of images and tactile information\n",
    "def get_desired_indices(root, fps, view_num=0): # frames per second from the video to receive\n",
    "    image_metadata_path = os.path.join(root, f'cam_{view_num}_rgb_video.metadata')\n",
    "    tactile_info_path = os.path.join(root, 'touch_sensor_values.h5')\n",
    "\n",
    "    with open(image_metadata_path, 'rb') as f:\n",
    "        image_metadata = pickle.load(f)\n",
    "        image_timestamps_array = np.asarray(image_metadata['timestamps'])\n",
    "        image_timestamps = np.asarray(image_metadata['timestamps']) / 1000.\n",
    "    with h5py.File(tactile_info_path, 'r') as f:\n",
    "        tactile_timestamps = f['timestamps'][()]\n",
    "\n",
    "    image_id, tactile_id = 0, 0\n",
    "    curr_timestamp = tactile_timestamps[0] # These timestamps are in seconds\n",
    "    image_id = get_closest_id(image_id, curr_timestamp, image_timestamps)\n",
    "\n",
    "    tactile_indices, image_indices = [], []\n",
    "    tactile_indices.append(tactile_id)\n",
    "    image_indices.append(image_id)\n",
    "\n",
    "    frame_period = 1. / fps\n",
    "    while(True):\n",
    "        curr_timestamp += frame_period\n",
    "        tactile_id = get_closest_id(tactile_id, curr_timestamp, tactile_timestamps)\n",
    "        image_id = get_closest_id(image_id, curr_timestamp, image_timestamps)\n",
    "\n",
    "        if curr_timestamp > tactile_timestamps[tactile_id] and curr_timestamp > image_timestamps[image_id]:\n",
    "            break\n",
    "\n",
    "        tactile_indices.append(tactile_id)\n",
    "        image_indices.append(image_id)\n",
    "\n",
    "    assert len(tactile_indices) == len(image_indices)\n",
    "    return tactile_indices, image_indices\n"
   ]
  },
  {
   "cell_type": "code",
   "execution_count": 5,
   "metadata": {},
   "outputs": [],
   "source": [
    "\n",
    "def dump_states(root, tactile_indices, image_indices, view_num=0):\n",
    "    # Make directory to dump the visualization\n",
    "    pbar = tqdm(total=len(tactile_indices))\n",
    "\n",
    "    with h5py.File(os.path.join(root, 'touch_sensor_values.h5'), 'r') as f:\n",
    "        all_tactile_values = f['sensor_values'][()]\n",
    "\n",
    "    viz_dir = os.path.join(root, 'visualization')\n",
    "    os.makedirs(viz_dir, exist_ok=True)\n",
    "    \n",
    "    video_path = os.path.join(root, f'cam_{view_num}_rgb_video.avi')\n",
    "    vidcap = cv2.VideoCapture(video_path)\n",
    "    success, image = vidcap.read()\n",
    "    frame_count = int(vidcap.get(cv2.CAP_PROP_FRAME_COUNT))\n",
    "    frame_id = 0\n",
    "    for i in range(len(tactile_indices)):\n",
    "        tactile_id, image_id = tactile_indices[i], image_indices[i]\n",
    "        while frame_id != image_id and success:\n",
    "            # Find the frame that is equal to image_id\n",
    "            success, image = vidcap.read()\n",
    "            frame_id += 1\n",
    "        dump_demo_state(\n",
    "            frame_id = i,\n",
    "            viz_dir = viz_dir,\n",
    "            tactile_values = all_tactile_values[tactile_id,:,:,:],\n",
    "            camera_img = image\n",
    "        )\n",
    "\n",
    "        pbar.update(1)\n",
    "\n",
    "    pbar.close()\n",
    "\n",
    "def dump_demo_state(frame_id, viz_dir, tactile_values, camera_img):\n",
    "    # tactile_values: (15,16,3)\n",
    "    fig, axs = plt.subplots(figsize=(20,20), nrows=4, ncols=4)\n",
    "    for row_id in range(4):\n",
    "        for column_id in range(4):\n",
    "            if row_id + column_id > 0: # The top left axis should stay empty\n",
    "                plot_tactile_sensor(\n",
    "                    ax = axs[column_id][row_id],\n",
    "                    sensor_values = tactile_values[row_id*4 + column_id-1],\n",
    "                    title = f'Sensor {row_id*4+column_id-1}'\n",
    "                )\n",
    "    fig.suptitle('Tactile State')\n",
    "    fig.savefig(os.path.join(viz_dir, 'Tactile State.png'))\n",
    "    fig.clf()\n",
    "    plt.close()\n",
    "\n",
    "    tactile_img = cv2.imread(os.path.join(viz_dir, 'Tactile State.png'))\n",
    "    height_scale = camera_img.shape[0] / tactile_img.shape[0]\n",
    "    tactile_img = cv2.resize(\n",
    "        tactile_img,\n",
    "        (int(tactile_img.shape[1] * height_scale),\n",
    "         int(tactile_img.shape[0] * height_scale))\n",
    "    )\n",
    "    total_img = cv2.hconcat([camera_img, tactile_img])\n",
    "\n",
    "    img_name = 'state_{}.png'.format(str(frame_id).zfill(3))\n",
    "    cv2.imwrite(os.path.join(viz_dir, img_name), total_img)\n",
    "\n"
   ]
  },
  {
   "cell_type": "code",
   "execution_count": 8,
   "metadata": {},
   "outputs": [
    {
     "name": "stdout",
     "output_type": "stream",
     "text": [
      "tactile_indices: [0, 99, 197, 295, 394, 491, 590, 689, 786, 884, 982, 1081, 1178, 1276, 1375, 1472, 1571, 1668, 1766, 1866, 1965, 2062, 2160, 2259, 2356, 2455, 2554, 2652, 2750, 2848, 2947, 3045, 3144, 3242, 3341, 3439, 3539, 3637, 3735, 3834, 3938, 4031, 4129, 4227, 4326, 4424, 4523, 4621, 4720, 4818], image_indices: [73, 103, 133, 163, 193, 223, 253, 283, 313, 343, 373, 403, 433, 463, 493, 523, 553, 583, 613, 643, 672, 701, 731, 761, 791, 821, 851, 881, 911, 941, 971, 1001, 1030, 1060, 1090, 1120, 1150, 1180, 1210, 1240, 1270, 1300, 1330, 1360, 1390, 1420, 1450, 1480, 1510, 1540]\n"
     ]
    },
    {
     "name": "stderr",
     "output_type": "stream",
     "text": [
      "\n",
      "\n",
      "  0%|                                                                                          | 0/50 [00:00<?, ?it/s]\u001b[A\u001b[A\n",
      "\n",
      "  2%|█▋                                                                               | 5/246 [00:15<12:48,  3.19s/it]\u001b[A\u001b[A\n",
      "\n",
      "\n",
      "  4%|███▎                                                                              | 2/50 [00:02<00:59,  1.25s/it]\u001b[A\u001b[A\n",
      "\n",
      "  6%|████▉                                                                             | 3/50 [00:03<00:55,  1.17s/it]\u001b[A\u001b[A\n",
      "\n",
      "  8%|██████▌                                                                           | 4/50 [00:04<00:52,  1.13s/it]\u001b[A\u001b[A\n",
      "\n",
      " 10%|████████▏                                                                         | 5/50 [00:05<00:54,  1.21s/it]\u001b[A\u001b[A\n",
      "\n",
      " 12%|█████████▊                                                                        | 6/50 [00:07<00:50,  1.16s/it]\u001b[A\u001b[A\n",
      "\n",
      " 14%|███████████▍                                                                      | 7/50 [00:08<00:51,  1.19s/it]\u001b[A\u001b[A\n",
      "\n",
      " 16%|█████████████                                                                     | 8/50 [00:09<00:48,  1.15s/it]\u001b[A\u001b[A\n",
      "\n",
      " 18%|██████████████▊                                                                   | 9/50 [00:10<00:47,  1.17s/it]\u001b[A\u001b[A\n",
      "\n",
      " 20%|████████████████▏                                                                | 10/50 [00:11<00:45,  1.13s/it]\u001b[A\u001b[A\n",
      "\n",
      " 22%|█████████████████▊                                                               | 11/50 [00:12<00:45,  1.16s/it]\u001b[A\u001b[A\n",
      "\n",
      " 24%|███████████████████▍                                                             | 12/50 [00:13<00:42,  1.12s/it]\u001b[A\u001b[A\n",
      "\n",
      " 26%|█████████████████████                                                            | 13/50 [00:15<00:42,  1.14s/it]\u001b[A\u001b[A\n",
      "\n",
      " 28%|██████████████████████▋                                                          | 14/50 [00:16<00:39,  1.10s/it]\u001b[A\u001b[A\n",
      "\n",
      " 30%|████████████████████████▎                                                        | 15/50 [00:17<00:39,  1.13s/it]\u001b[A\u001b[A\n",
      "\n",
      " 32%|█████████████████████████▉                                                       | 16/50 [00:18<00:37,  1.10s/it]\u001b[A\u001b[A\n",
      "\n",
      " 34%|███████████████████████████▌                                                     | 17/50 [00:19<00:36,  1.11s/it]\u001b[A\u001b[A\n",
      "\n",
      " 36%|█████████████████████████████▏                                                   | 18/50 [00:20<00:34,  1.07s/it]\u001b[A\u001b[A\n",
      "\n",
      " 38%|██████████████████████████████▊                                                  | 19/50 [00:21<00:34,  1.11s/it]\u001b[A\u001b[A\n",
      "\n",
      " 40%|████████████████████████████████▍                                                | 20/50 [00:22<00:32,  1.08s/it]\u001b[A\u001b[A\n",
      "\n",
      " 42%|██████████████████████████████████                                               | 21/50 [00:23<00:30,  1.06s/it]\u001b[A\u001b[A\n",
      "\n",
      " 44%|███████████████████████████████████▋                                             | 22/50 [00:24<00:30,  1.10s/it]\u001b[A\u001b[A\n",
      "\n",
      " 46%|█████████████████████████████████████▎                                           | 23/50 [00:25<00:29,  1.08s/it]\u001b[A\u001b[A\n",
      "\n",
      " 48%|██████████████████████████████████████▉                                          | 24/50 [00:27<00:29,  1.14s/it]\u001b[A\u001b[A\n",
      "\n",
      " 50%|████████████████████████████████████████▌                                        | 25/50 [00:28<00:27,  1.12s/it]\u001b[A\u001b[A\n",
      "\n",
      " 52%|██████████████████████████████████████████                                       | 26/50 [00:29<00:28,  1.17s/it]\u001b[A\u001b[A\n",
      "\n",
      " 54%|███████████████████████████████████████████▋                                     | 27/50 [00:30<00:25,  1.12s/it]\u001b[A\u001b[A\n",
      "\n",
      " 56%|█████████████████████████████████████████████▎                                   | 28/50 [00:31<00:25,  1.17s/it]\u001b[A\u001b[A\n",
      "\n",
      " 58%|██████████████████████████████████████████████▉                                  | 29/50 [00:32<00:24,  1.15s/it]\u001b[A\u001b[A\n",
      "\n",
      " 60%|████████████████████████████████████████████████▌                                | 30/50 [00:34<00:23,  1.17s/it]\u001b[A\u001b[A\n",
      "\n",
      " 62%|██████████████████████████████████████████████████▏                              | 31/50 [00:35<00:21,  1.14s/it]\u001b[A\u001b[A\n",
      "\n",
      " 64%|███████████████████████████████████████████████████▊                             | 32/50 [00:36<00:19,  1.10s/it]\u001b[A\u001b[A\n",
      "\n",
      " 66%|█████████████████████████████████████████████████████▍                           | 33/50 [00:37<00:19,  1.14s/it]\u001b[A\u001b[A\n",
      "\n",
      " 68%|███████████████████████████████████████████████████████                          | 34/50 [00:38<00:17,  1.11s/it]\u001b[A\u001b[A\n",
      "\n",
      " 70%|████████████████████████████████████████████████████████▋                        | 35/50 [00:39<00:17,  1.15s/it]\u001b[A\u001b[A\n",
      "\n",
      " 72%|██████████████████████████████████████████████████████████▎                      | 36/50 [00:40<00:15,  1.13s/it]\u001b[A\u001b[A\n",
      "\n",
      " 74%|███████████████████████████████████████████████████████████▉                     | 37/50 [00:42<00:15,  1.16s/it]\u001b[A\u001b[A\n",
      "\n",
      " 76%|█████████████████████████████████████████████████████████████▌                   | 38/50 [00:43<00:13,  1.13s/it]\u001b[A\u001b[A\n",
      "\n",
      " 78%|███████████████████████████████████████████████████████████████▏                 | 39/50 [00:44<00:13,  1.19s/it]\u001b[A\u001b[A\n",
      "\n",
      " 80%|████████████████████████████████████████████████████████████████▊                | 40/50 [00:45<00:11,  1.15s/it]\u001b[A\u001b[A\n",
      "\n",
      " 82%|██████████████████████████████████████████████████████████████████▍              | 41/50 [00:46<00:10,  1.17s/it]\u001b[A\u001b[A\n",
      "\n",
      " 84%|████████████████████████████████████████████████████████████████████             | 42/50 [00:47<00:09,  1.14s/it]\u001b[A\u001b[A\n",
      "\n",
      " 86%|█████████████████████████████████████████████████████████████████████▋           | 43/50 [00:48<00:08,  1.17s/it]\u001b[A\u001b[A\n",
      "\n",
      " 88%|███████████████████████████████████████████████████████████████████████▎         | 44/50 [00:50<00:06,  1.14s/it]\u001b[A\u001b[A\n",
      "\n",
      " 90%|████████████████████████████████████████████████████████████████████████▉        | 45/50 [00:51<00:05,  1.18s/it]\u001b[A\u001b[A\n",
      "\n",
      " 92%|██████████████████████████████████████████████████████████████████████████▌      | 46/50 [00:52<00:04,  1.15s/it]\u001b[A\u001b[A\n",
      "\n",
      " 94%|████████████████████████████████████████████████████████████████████████████▏    | 47/50 [00:53<00:03,  1.17s/it]\u001b[A\u001b[A\n",
      "\n",
      " 96%|█████████████████████████████████████████████████████████████████████████████▊   | 48/50 [00:54<00:02,  1.15s/it]\u001b[A\u001b[A\n",
      "\n",
      " 98%|███████████████████████████████████████████████████████████████████████████████▍ | 49/50 [00:55<00:01,  1.12s/it]\u001b[A\u001b[A\n",
      "\n",
      "100%|█████████████████████████████████████████████████████████████████████████████████| 50/50 [00:57<00:00,  1.14s/it]\u001b[A\u001b[A\n"
     ]
    },
    {
     "name": "stdout",
     "output_type": "stream",
     "text": [
      "tactile_indices: [0, 99, 198, 296, 395, 493, 592, 688, 787, 885, 983, 1081, 1180, 1278, 1375, 1474, 1572, 1670, 1769, 1871, 1965, 2064, 2162, 2261, 2359, 2457, 2555, 2652, 2751, 2850, 2947, 3044, 3142, 3240, 3337, 3437, 3534, 3631, 3730, 3828, 3926], image_indices: [70, 100, 130, 160, 190, 220, 250, 280, 310, 340, 369, 398, 428, 458, 488, 518, 548, 578, 608, 638, 668, 698, 728, 758, 787, 817, 847, 877, 907, 937, 966, 996, 1026, 1056, 1085, 1115, 1145, 1175, 1205, 1235, 1264]\n"
     ]
    },
    {
     "name": "stderr",
     "output_type": "stream",
     "text": [
      "100%|█████████████████████████████████████████████████████████████████████████████████| 41/41 [00:46<00:00,  1.13s/it]\n"
     ]
    },
    {
     "name": "stdout",
     "output_type": "stream",
     "text": [
      "tactile_indices: [0, 100, 197, 296, 393, 491, 589, 687, 785, 885, 983, 1080, 1179, 1278, 1375, 1473, 1572, 1669, 1767, 1865, 1963, 2062, 2160, 2259, 2357, 2455, 2553, 2651, 2750, 2849, 2946, 3045, 3144, 3242, 3341, 3439, 3538, 3635], image_indices: [71, 101, 131, 161, 191, 221, 251, 281, 311, 341, 371, 401, 431, 461, 491, 521, 551, 581, 610, 640, 670, 700, 730, 760, 790, 820, 850, 880, 910, 940, 970, 1000, 1030, 1060, 1090, 1120, 1150, 1180]\n"
     ]
    },
    {
     "name": "stderr",
     "output_type": "stream",
     "text": [
      "100%|█████████████████████████████████████████████████████████████████████████████████| 38/38 [00:43<00:00,  1.15s/it]\n"
     ]
    },
    {
     "name": "stdout",
     "output_type": "stream",
     "text": [
      "tactile_indices: [0, 99, 197, 296, 393, 491, 590, 688, 786, 884, 982, 1080, 1179, 1278, 1375, 1474, 1572, 1672, 1769, 1867, 1967, 2066, 2163, 2261, 2358, 2457, 2555, 2655, 2753, 2850, 2948, 3046, 3144, 3243, 3340, 3439, 3537, 3636, 3733, 3831, 3929, 4028, 4126], image_indices: [72, 102, 132, 162, 192, 222, 252, 282, 312, 342, 372, 402, 431, 461, 491, 521, 551, 581, 611, 641, 670, 699, 730, 760, 790, 820, 850, 880, 910, 940, 970, 1000, 1030, 1060, 1090, 1120, 1150, 1180, 1210, 1240, 1270, 1300, 1329]\n"
     ]
    },
    {
     "name": "stderr",
     "output_type": "stream",
     "text": [
      "100%|█████████████████████████████████████████████████████████████████████████████████| 43/43 [00:50<00:00,  1.17s/it]\n"
     ]
    },
    {
     "name": "stdout",
     "output_type": "stream",
     "text": [
      "tactile_indices: [0, 100, 198, 296, 394, 492, 591, 689, 786, 884, 981, 1079, 1179, 1277, 1375, 1473, 1571, 1668, 1766, 1865, 1962, 2060, 2158, 2255, 2353, 2451, 2550, 2650, 2746, 2842, 2939, 3036, 3133, 3231, 3331, 3428, 3526, 3624], image_indices: [72, 102, 132, 162, 192, 222, 252, 282, 312, 342, 372, 402, 432, 462, 491, 521, 551, 581, 611, 641, 671, 701, 731, 761, 791, 821, 851, 881, 911, 941, 971, 1001, 1031, 1061, 1091, 1121, 1151, 1181]\n"
     ]
    },
    {
     "name": "stderr",
     "output_type": "stream",
     "text": [
      "100%|█████████████████████████████████████████████████████████████████████████████████| 38/38 [00:43<00:00,  1.13s/it]\n"
     ]
    },
    {
     "name": "stdout",
     "output_type": "stream",
     "text": [
      "tactile_indices: [0, 99, 197, 296, 394, 492, 590, 688, 786, 884, 983, 1082, 1180, 1279, 1376, 1475, 1573, 1674, 1769, 1867, 1967, 2064, 2163, 2261, 2359, 2457, 2556, 2655, 2752, 2851, 2948, 3046, 3143, 3241, 3340, 3437, 3535, 3634, 3734, 3832, 3932], image_indices: [72, 102, 132, 162, 192, 222, 252, 282, 312, 342, 372, 402, 432, 462, 492, 522, 552, 582, 612, 642, 672, 702, 732, 762, 792, 822, 852, 882, 912, 942, 972, 1002, 1032, 1062, 1092, 1122, 1152, 1182, 1212, 1242, 1272]\n"
     ]
    },
    {
     "name": "stderr",
     "output_type": "stream",
     "text": [
      "100%|█████████████████████████████████████████████████████████████████████████████████| 41/41 [00:48<00:00,  1.18s/it]\n"
     ]
    },
    {
     "name": "stdout",
     "output_type": "stream",
     "text": [
      "tactile_indices: [0, 99, 197, 296, 394, 493, 591, 690, 788, 885, 983, 1081, 1179, 1278, 1376, 1479, 1574, 1671, 1770, 1868, 1967, 2065, 2163, 2261, 2358, 2455, 2553, 2650, 2748, 2846, 2945, 3043, 3141, 3239, 3337, 3435], image_indices: [72, 102, 132, 162, 192, 222, 252, 282, 312, 341, 371, 401, 431, 461, 491, 521, 551, 581, 611, 641, 671, 701, 731, 761, 791, 821, 851, 881, 911, 941, 971, 1001, 1031, 1061, 1091, 1121]\n"
     ]
    },
    {
     "name": "stderr",
     "output_type": "stream",
     "text": [
      "100%|█████████████████████████████████████████████████████████████████████████████████| 36/36 [00:41<00:00,  1.15s/it]\n"
     ]
    },
    {
     "name": "stdout",
     "output_type": "stream",
     "text": [
      "tactile_indices: [0, 99, 198, 296, 394, 492, 590, 688, 786, 884, 983, 1082, 1179, 1276, 1375, 1472, 1569, 1667, 1767, 1864, 1963, 2061, 2160, 2258, 2356, 2456, 2553, 2652, 2749, 2848, 2946, 3043, 3142, 3240, 3339, 3437, 3535, 3632, 3734, 3830, 3928, 4026, 4125, 4222, 4320, 4418, 4516, 4613, 4712, 4811], image_indices: [70, 100, 130, 160, 190, 220, 250, 280, 310, 340, 370, 400, 430, 460, 490, 520, 550, 580, 610, 640, 670, 700, 730, 760, 790, 820, 850, 880, 910, 940, 970, 1000, 1030, 1059, 1089, 1119, 1149, 1179, 1208, 1238, 1268, 1298, 1328, 1358, 1388, 1418, 1448, 1478, 1508, 1538]\n"
     ]
    },
    {
     "name": "stderr",
     "output_type": "stream",
     "text": [
      "100%|█████████████████████████████████████████████████████████████████████████████████| 50/50 [00:58<00:00,  1.16s/it]\n"
     ]
    },
    {
     "name": "stdout",
     "output_type": "stream",
     "text": [
      "tactile_indices: [0, 99, 198, 295, 392, 491, 590, 687, 785, 883, 981, 1079, 1182, 1274, 1372, 1471, 1567, 1667, 1764, 1863, 1961, 2058, 2157, 2255, 2353, 2452, 2550, 2647, 2746, 2844, 2941, 3040, 3137, 3235, 3334, 3433, 3530, 3629, 3727, 3827, 3925, 4022, 4120, 4219], image_indices: [75, 105, 135, 165, 195, 225, 255, 285, 315, 345, 375, 405, 435, 465, 495, 525, 555, 585, 615, 645, 675, 705, 735, 765, 795, 825, 855, 885, 915, 945, 975, 1005, 1035, 1065, 1095, 1125, 1155, 1185, 1215, 1245, 1275, 1305, 1335, 1365]\n"
     ]
    },
    {
     "name": "stderr",
     "output_type": "stream",
     "text": [
      "100%|█████████████████████████████████████████████████████████████████████████████████| 44/44 [00:50<00:00,  1.15s/it]\n"
     ]
    },
    {
     "name": "stdout",
     "output_type": "stream",
     "text": [
      "tactile_indices: [0, 101, 197, 295, 393, 491, 589, 687, 785, 883, 981, 1080, 1178, 1276, 1374, 1473, 1570, 1667, 1763, 1862, 1960, 2058, 2157, 2254, 2352, 2450, 2548, 2648, 2745, 2843, 2942, 3040, 3139, 3236, 3335, 3432, 3530, 3628], image_indices: [72, 102, 132, 162, 192, 222, 252, 282, 312, 342, 372, 402, 432, 462, 492, 522, 552, 582, 612, 642, 672, 702, 731, 761, 791, 821, 851, 881, 911, 941, 971, 1001, 1031, 1061, 1091, 1121, 1151, 1181]\n"
     ]
    },
    {
     "name": "stderr",
     "output_type": "stream",
     "text": [
      "100%|█████████████████████████████████████████████████████████████████████████████████| 38/38 [00:43<00:00,  1.14s/it]\n"
     ]
    }
   ],
   "source": [
    "import glob\n",
    "# roots = [\n",
    "#     '/home/irmak/Workspace/Holo-Bot/extracted_data/bowl_picking/eval/demonstration_7',\n",
    "#     '/home/irmak/Workspace/Holo-Bot/extracted_data/bowl_picking/eval/demonstration_9',\n",
    "#     '/home/irmak/Workspace/Holo-Bot/extracted_data/bowl_picking/eval/demonstration_15',\n",
    "# ]\n",
    "data_path = '/home/irmak/Workspace/Holo-Bot/extracted_data/cup_picking/after_rss'\n",
    "# data_path = '/data/tactile_learning/deployment_data/data/bowl_picking/demonstrations/image_generalization'\n",
    "roots = glob.glob(f'{data_path}/demonstration_*')\n",
    "\n",
    "retrieval_fps = 1\n",
    "view_num = 1\n",
    "for root in roots:\n",
    "    # print('root: {}'.format(root))\n",
    "    tactile_indices, image_indices = get_desired_indices(root=root, fps=retrieval_fps, view_num=view_num)\n",
    "    print('tactile_indices: {}, image_indices: {}'.format(tactile_indices, image_indices))\n",
    "    dump_states(root, tactile_indices, image_indices, view_num=view_num)\n"
   ]
  },
  {
   "cell_type": "code",
   "execution_count": 9,
   "metadata": {},
   "outputs": [
    {
     "name": "stdout",
     "output_type": "stream",
     "text": [
      "['/home/irmak/Workspace/Holo-Bot/extracted_data/cup_picking/after_rss/demonstration_10', '/home/irmak/Workspace/Holo-Bot/extracted_data/cup_picking/after_rss/demonstration_8', '/home/irmak/Workspace/Holo-Bot/extracted_data/cup_picking/after_rss/demonstration_3', '/home/irmak/Workspace/Holo-Bot/extracted_data/cup_picking/after_rss/demonstration_1', '/home/irmak/Workspace/Holo-Bot/extracted_data/cup_picking/after_rss/demonstration_2', '/home/irmak/Workspace/Holo-Bot/extracted_data/cup_picking/after_rss/demonstration_9', '/home/irmak/Workspace/Holo-Bot/extracted_data/cup_picking/after_rss/demonstration_6', '/home/irmak/Workspace/Holo-Bot/extracted_data/cup_picking/after_rss/demonstration_7', '/home/irmak/Workspace/Holo-Bot/extracted_data/cup_picking/after_rss/demonstration_5', '/home/irmak/Workspace/Holo-Bot/extracted_data/cup_picking/after_rss/demonstration_4']\n"
     ]
    }
   ],
   "source": [
    "print(roots)"
   ]
  },
  {
   "cell_type": "code",
   "execution_count": 10,
   "metadata": {},
   "outputs": [
    {
     "name": "stdout",
     "output_type": "stream",
     "text": [
      "dumping video in root: /home/irmak/Workspace/Holo-Bot/extracted_data/cup_picking/after_rss/demonstration_10\n"
     ]
    },
    {
     "name": "stderr",
     "output_type": "stream",
     "text": [
      "ffmpeg version 5.1.2 Copyright (c) 2000-2022 the FFmpeg developers\n",
      "  built with gcc 10.4.0 (conda-forge gcc 10.4.0-18)\n",
      "  configuration: --prefix=/home/irmak/miniconda3/envs/tactile_learning --cc=/home/conda/feedstock_root/build_artifacts/ffmpeg_1666357487580/_build_env/bin/x86_64-conda-linux-gnu-cc --cxx=/home/conda/feedstock_root/build_artifacts/ffmpeg_1666357487580/_build_env/bin/x86_64-conda-linux-gnu-c++ --nm=/home/conda/feedstock_root/build_artifacts/ffmpeg_1666357487580/_build_env/bin/x86_64-conda-linux-gnu-nm --ar=/home/conda/feedstock_root/build_artifacts/ffmpeg_1666357487580/_build_env/bin/x86_64-conda-linux-gnu-ar --disable-doc --disable-openssl --enable-demuxer=dash --enable-hardcoded-tables --enable-libfreetype --enable-libfontconfig --enable-libopenh264 --enable-gnutls --enable-libmp3lame --enable-libvpx --enable-pthreads --enable-vaapi --enable-gpl --enable-libx264 --enable-libx265 --enable-libaom --enable-libsvtav1 --enable-libxml2 --enable-pic --enable-shared --disable-static --enable-version3 --enable-zlib --pkg-config=/home/conda/feedstock_root/build_artifacts/ffmpeg_1666357487580/_build_env/bin/pkg-config\n",
      "  libavutil      57. 28.100 / 57. 28.100\n",
      "  libavcodec     59. 37.100 / 59. 37.100\n",
      "  libavformat    59. 27.100 / 59. 27.100\n",
      "  libavdevice    59.  7.100 / 59.  7.100\n",
      "  libavfilter     8. 44.100 /  8. 44.100\n",
      "  libswscale      6.  7.100 /  6.  7.100\n",
      "  libswresample   4.  7.100 /  4.  7.100\n",
      "  libpostproc    56.  6.100 / 56.  6.100\n",
      "[image2 @ 0x55b99ad77640] Pattern type 'glob_sequence' is deprecated: use pattern_type 'glob' instead\n",
      "Input #0, image2, from '/home/irmak/Workspace/Holo-Bot/extracted_data/cup_picking/after_rss/demonstration_10/visualization/%*.png':\n",
      "  Duration: 00:00:02.04, start: 0.000000, bitrate: N/A\n",
      "  Stream #0:0: Video: png, rgba(pc), 2000x2000 [SAR 3937:3937 DAR 1:1], 25 fps, 25 tbr, 25 tbn\n",
      "Stream mapping:\n",
      "  Stream #0:0 -> #0:0 (png (native) -> h264 (libx264))\n",
      "Press [q] to stop, [?] for help\n",
      "[libx264 @ 0x55b99ad92dc0] using SAR=1/1\n",
      "[libx264 @ 0x55b99ad92dc0] using cpu capabilities: MMX2 SSE2Fast SSSE3 SSE4.2 AVX FMA3 BMI2 AVX2\n",
      "[libx264 @ 0x55b99ad92dc0] profile High 4:4:4 Predictive, level 4.0, 4:4:4, 8-bit\n",
      "[libx264 @ 0x55b99ad92dc0] 264 - core 164 r3095 baee400 - H.264/MPEG-4 AVC codec - Copyleft 2003-2022 - http://www.videolan.org/x264.html - options: cabac=1 ref=3 deblock=1:0:0 analyse=0x3:0x113 me=hex subme=7 psy=1 psy_rd=1.00:0.00 mixed_ref=1 me_range=16 chroma_me=1 trellis=1 8x8dct=1 cqm=0 deadzone=21,11 fast_pskip=1 chroma_qp_offset=4 threads=22 lookahead_threads=3 sliced_threads=0 nr=0 decimate=1 interlaced=0 bluray_compat=0 constrained_intra=0 bframes=3 b_pyramid=2 b_adapt=1 b_bias=0 direct=1 weightb=1 open_gop=0 weightp=2 keyint=250 keyint_min=10 scenecut=40 intra_refresh=0 rc_lookahead=40 rc=crf mbtree=1 crf=23.0 qcomp=0.60 qpmin=0 qpmax=69 qpstep=4 ip_ratio=1.40 aq=1:1.00\n",
      "Output #0, mp4, to '/home/irmak/Workspace/Holo-Bot/extracted_data/cup_picking/after_rss/demonstration_10/visualization_1.mp4':\n",
      "  Metadata:\n",
      "    encoder         : Lavf59.27.100\n",
      "  Stream #0:0: Video: h264 (avc1 / 0x31637661), yuv444p(tv, progressive), 2000x720 [SAR 1:1 DAR 25:9], q=2-31, 10 fps, 10240 tbn\n",
      "    Metadata:\n",
      "      encoder         : Lavc59.37.100 libx264\n",
      "    Side data:\n",
      "      cpb: bitrate max/min/avg: 0/0/0 buffer size: 0 vbv_delay: N/A\n",
      "frame=   51 fps= 51 q=-1.0 Lsize=    1275kB time=00:00:04.80 bitrate=2175.4kbits/s speed=4.78x    \n",
      "video:1273kB audio:0kB subtitle:0kB other streams:0kB global headers:0kB muxing overhead: 0.115437%\n",
      "[libx264 @ 0x55b99ad92dc0] frame I:1     Avg QP:21.88  size: 46355\n",
      "[libx264 @ 0x55b99ad92dc0] frame P:13    Avg QP:19.09  size: 41839\n",
      "[libx264 @ 0x55b99ad92dc0] frame B:37    Avg QP:20.95  size: 19264\n",
      "[libx264 @ 0x55b99ad92dc0] consecutive B-frames:  2.0%  3.9%  0.0% 94.1%\n",
      "[libx264 @ 0x55b99ad92dc0] mb I  I16..4: 29.5% 45.0% 25.5%\n",
      "[libx264 @ 0x55b99ad92dc0] mb P  I16..4:  3.4% 25.0%  1.4%  P16..4: 21.4% 10.5%  6.0%  0.0%  0.0%    skip:32.2%\n",
      "[libx264 @ 0x55b99ad92dc0] mb B  I16..4:  1.2% 14.3%  0.2%  B16..8: 22.2%  5.2%  1.3%  direct: 3.9%  skip:51.8%  L0:47.9% L1:45.6% BI: 6.5%\n",
      "[libx264 @ 0x55b99ad92dc0] 8x8 transform intra:84.2% inter:84.7%\n",
      "[libx264 @ 0x55b99ad92dc0] coded y,u,v intra: 63.5% 26.9% 26.9% inter: 18.2% 10.2% 9.2%\n",
      "[libx264 @ 0x55b99ad92dc0] i16 v,h,dc,p: 39% 24% 24% 12%\n",
      "[libx264 @ 0x55b99ad92dc0] i8 v,h,dc,ddl,ddr,vr,hd,vl,hu: 16% 17% 55%  2%  1%  2%  1%  2%  3%\n",
      "[libx264 @ 0x55b99ad92dc0] i4 v,h,dc,ddl,ddr,vr,hd,vl,hu: 35% 32% 14%  2%  3%  4%  4%  2%  4%\n",
      "[libx264 @ 0x55b99ad92dc0] Weighted P-Frames: Y:0.0% UV:0.0%\n",
      "[libx264 @ 0x55b99ad92dc0] ref P L0: 39.7%  6.7% 34.2% 19.3%\n",
      "[libx264 @ 0x55b99ad92dc0] ref B L0: 67.1% 25.9%  6.9%\n",
      "[libx264 @ 0x55b99ad92dc0] ref B L1: 87.5% 12.5%\n",
      "[libx264 @ 0x55b99ad92dc0] kb/s:2044.00\n",
      "ffmpeg version 5.1.2 Copyright (c) 2000-2022 the FFmpeg developers\n",
      "  built with gcc 10.4.0 (conda-forge gcc 10.4.0-18)\n",
      "  configuration: --prefix=/home/irmak/miniconda3/envs/tactile_learning --cc=/home/conda/feedstock_root/build_artifacts/ffmpeg_1666357487580/_build_env/bin/x86_64-conda-linux-gnu-cc --cxx=/home/conda/feedstock_root/build_artifacts/ffmpeg_1666357487580/_build_env/bin/x86_64-conda-linux-gnu-c++ --nm=/home/conda/feedstock_root/build_artifacts/ffmpeg_1666357487580/_build_env/bin/x86_64-conda-linux-gnu-nm --ar=/home/conda/feedstock_root/build_artifacts/ffmpeg_1666357487580/_build_env/bin/x86_64-conda-linux-gnu-ar --disable-doc --disable-openssl --enable-demuxer=dash --enable-hardcoded-tables --enable-libfreetype --enable-libfontconfig --enable-libopenh264 --enable-gnutls --enable-libmp3lame --enable-libvpx --enable-pthreads --enable-vaapi --enable-gpl --enable-libx264 --enable-libx265 --enable-libaom --enable-libsvtav1 --enable-libxml2 --enable-pic --enable-shared --disable-static --enable-version3 --enable-zlib --pkg-config=/home/conda/feedstock_root/build_artifacts/ffmpeg_1666357487580/_build_env/bin/pkg-config\n",
      "  libavutil      57. 28.100 / 57. 28.100\n",
      "  libavcodec     59. 37.100 / 59. 37.100\n",
      "  libavformat    59. 27.100 / 59. 27.100\n",
      "  libavdevice    59.  7.100 / 59.  7.100\n",
      "  libavfilter     8. 44.100 /  8. 44.100\n",
      "  libswscale      6.  7.100 /  6.  7.100\n",
      "  libswresample   4.  7.100 /  4.  7.100\n",
      "  libpostproc    56.  6.100 / 56.  6.100\n",
      "[image2 @ 0x56042f3cf640] Pattern type 'glob_sequence' is deprecated: use pattern_type 'glob' instead\n",
      "Input #0, image2, from '/home/irmak/Workspace/Holo-Bot/extracted_data/cup_picking/after_rss/demonstration_8/visualization/%*.png':\n",
      "  Duration: 00:00:01.68, start: 0.000000, bitrate: N/A\n",
      "  Stream #0:0: Video: png, rgba(pc), 2000x2000 [SAR 3937:3937 DAR 1:1], 25 fps, 25 tbr, 25 tbn\n",
      "Stream mapping:\n",
      "  Stream #0:0 -> #0:0 (png (native) -> h264 (libx264))\n",
      "Press [q] to stop, [?] for help\n"
     ]
    },
    {
     "name": "stdout",
     "output_type": "stream",
     "text": [
      "dumping video in root: /home/irmak/Workspace/Holo-Bot/extracted_data/cup_picking/after_rss/demonstration_8\n"
     ]
    },
    {
     "name": "stderr",
     "output_type": "stream",
     "text": [
      "[libx264 @ 0x56042f3d6c00] using SAR=1/1\n",
      "[libx264 @ 0x56042f3d6c00] using cpu capabilities: MMX2 SSE2Fast SSSE3 SSE4.2 AVX FMA3 BMI2 AVX2\n",
      "[libx264 @ 0x56042f3d6c00] profile High 4:4:4 Predictive, level 4.0, 4:4:4, 8-bit\n",
      "[libx264 @ 0x56042f3d6c00] 264 - core 164 r3095 baee400 - H.264/MPEG-4 AVC codec - Copyleft 2003-2022 - http://www.videolan.org/x264.html - options: cabac=1 ref=3 deblock=1:0:0 analyse=0x3:0x113 me=hex subme=7 psy=1 psy_rd=1.00:0.00 mixed_ref=1 me_range=16 chroma_me=1 trellis=1 8x8dct=1 cqm=0 deadzone=21,11 fast_pskip=1 chroma_qp_offset=4 threads=22 lookahead_threads=3 sliced_threads=0 nr=0 decimate=1 interlaced=0 bluray_compat=0 constrained_intra=0 bframes=3 b_pyramid=2 b_adapt=1 b_bias=0 direct=1 weightb=1 open_gop=0 weightp=2 keyint=250 keyint_min=10 scenecut=40 intra_refresh=0 rc_lookahead=40 rc=crf mbtree=1 crf=23.0 qcomp=0.60 qpmin=0 qpmax=69 qpstep=4 ip_ratio=1.40 aq=1:1.00\n",
      "Output #0, mp4, to '/home/irmak/Workspace/Holo-Bot/extracted_data/cup_picking/after_rss/demonstration_8/visualization_1.mp4':\n",
      "  Metadata:\n",
      "    encoder         : Lavf59.27.100\n",
      "  Stream #0:0: Video: h264 (avc1 / 0x31637661), yuv444p(tv, progressive), 2000x720 [SAR 1:1 DAR 25:9], q=2-31, 10 fps, 10240 tbn\n",
      "    Metadata:\n",
      "      encoder         : Lavc59.37.100 libx264\n",
      "    Side data:\n",
      "      cpb: bitrate max/min/avg: 0/0/0 buffer size: 0 vbv_delay: N/A\n",
      "frame=   42 fps=0.0 q=-1.0 Lsize=    1115kB time=00:00:03.90 bitrate=2341.6kbits/s speed=4.05x    \n",
      "video:1113kB audio:0kB subtitle:0kB other streams:0kB global headers:0kB muxing overhead: 0.122527%\n",
      "[libx264 @ 0x56042f3d6c00] frame I:1     Avg QP:21.76  size: 47339\n",
      "[libx264 @ 0x56042f3d6c00] frame P:11    Avg QP:19.45  size: 44558\n",
      "[libx264 @ 0x56042f3d6c00] frame B:30    Avg QP:21.02  size: 20067\n",
      "[libx264 @ 0x56042f3d6c00] consecutive B-frames:  4.8%  0.0%  0.0% 95.2%\n",
      "[libx264 @ 0x56042f3d6c00] mb I  I16..4: 27.4% 46.9% 25.8%\n",
      "[libx264 @ 0x56042f3d6c00] mb P  I16..4:  3.5% 29.1%  1.8%  P16..4: 18.3% 10.1%  5.8%  0.0%  0.0%    skip:31.5%\n",
      "[libx264 @ 0x56042f3d6c00] mb B  I16..4:  1.2% 13.3%  0.2%  B16..8: 22.8%  5.7%  1.4%  direct: 4.2%  skip:51.2%  L0:47.4% L1:44.8% BI: 7.7%\n",
      "[libx264 @ 0x56042f3d6c00] 8x8 transform intra:83.4% inter:83.6%\n",
      "[libx264 @ 0x56042f3d6c00] coded y,u,v intra: 62.8% 26.9% 26.8% inter: 18.7% 10.3% 9.4%\n",
      "[libx264 @ 0x56042f3d6c00] i16 v,h,dc,p: 39% 26% 23% 12%\n",
      "[libx264 @ 0x56042f3d6c00] i8 v,h,dc,ddl,ddr,vr,hd,vl,hu: 18% 17% 53%  2%  1%  2%  1%  2%  3%\n",
      "[libx264 @ 0x56042f3d6c00] i4 v,h,dc,ddl,ddr,vr,hd,vl,hu: 37% 31% 14%  2%  2%  3%  4%  2%  4%\n",
      "[libx264 @ 0x56042f3d6c00] Weighted P-Frames: Y:0.0% UV:0.0%\n",
      "[libx264 @ 0x56042f3d6c00] ref P L0: 42.5%  8.0% 31.6% 17.9%\n",
      "[libx264 @ 0x56042f3d6c00] ref B L0: 72.8% 21.5%  5.7%\n",
      "[libx264 @ 0x56042f3d6c00] ref B L1: 87.5% 12.5%\n",
      "[libx264 @ 0x56042f3d6c00] kb/s:2170.42\n",
      "ffmpeg version 5.1.2 Copyright (c) 2000-2022 the FFmpeg developers\n",
      "  built with gcc 10.4.0 (conda-forge gcc 10.4.0-18)\n",
      "  configuration: --prefix=/home/irmak/miniconda3/envs/tactile_learning --cc=/home/conda/feedstock_root/build_artifacts/ffmpeg_1666357487580/_build_env/bin/x86_64-conda-linux-gnu-cc --cxx=/home/conda/feedstock_root/build_artifacts/ffmpeg_1666357487580/_build_env/bin/x86_64-conda-linux-gnu-c++ --nm=/home/conda/feedstock_root/build_artifacts/ffmpeg_1666357487580/_build_env/bin/x86_64-conda-linux-gnu-nm --ar=/home/conda/feedstock_root/build_artifacts/ffmpeg_1666357487580/_build_env/bin/x86_64-conda-linux-gnu-ar --disable-doc --disable-openssl --enable-demuxer=dash --enable-hardcoded-tables --enable-libfreetype --enable-libfontconfig --enable-libopenh264 --enable-gnutls --enable-libmp3lame --enable-libvpx --enable-pthreads --enable-vaapi --enable-gpl --enable-libx264 --enable-libx265 --enable-libaom --enable-libsvtav1 --enable-libxml2 --enable-pic --enable-shared --disable-static --enable-version3 --enable-zlib --pkg-config=/home/conda/feedstock_root/build_artifacts/ffmpeg_1666357487580/_build_env/bin/pkg-config\n",
      "  libavutil      57. 28.100 / 57. 28.100\n",
      "  libavcodec     59. 37.100 / 59. 37.100\n",
      "  libavformat    59. 27.100 / 59. 27.100\n",
      "  libavdevice    59.  7.100 / 59.  7.100\n",
      "  libavfilter     8. 44.100 /  8. 44.100\n",
      "  libswscale      6.  7.100 /  6.  7.100\n",
      "  libswresample   4.  7.100 /  4.  7.100\n",
      "  libpostproc    56.  6.100 / 56.  6.100\n",
      "[image2 @ 0x560efcc59640] Pattern type 'glob_sequence' is deprecated: use pattern_type 'glob' instead\n",
      "Input #0, image2, from '/home/irmak/Workspace/Holo-Bot/extracted_data/cup_picking/after_rss/demonstration_3/visualization/%*.png':\n",
      "  Duration: 00:00:01.56, start: 0.000000, bitrate: N/A\n",
      "  Stream #0:0: Video: png, rgba(pc), 2000x2000 [SAR 3937:3937 DAR 1:1], 25 fps, 25 tbr, 25 tbn\n",
      "Stream mapping:\n",
      "  Stream #0:0 -> #0:0 (png (native) -> h264 (libx264))\n",
      "Press [q] to stop, [?] for help\n"
     ]
    },
    {
     "name": "stdout",
     "output_type": "stream",
     "text": [
      "dumping video in root: /home/irmak/Workspace/Holo-Bot/extracted_data/cup_picking/after_rss/demonstration_3\n"
     ]
    },
    {
     "name": "stderr",
     "output_type": "stream",
     "text": [
      "[libx264 @ 0x560efcc60a80] using SAR=1/1\n",
      "[libx264 @ 0x560efcc60a80] using cpu capabilities: MMX2 SSE2Fast SSSE3 SSE4.2 AVX FMA3 BMI2 AVX2\n",
      "[libx264 @ 0x560efcc60a80] profile High 4:4:4 Predictive, level 4.0, 4:4:4, 8-bit\n",
      "[libx264 @ 0x560efcc60a80] 264 - core 164 r3095 baee400 - H.264/MPEG-4 AVC codec - Copyleft 2003-2022 - http://www.videolan.org/x264.html - options: cabac=1 ref=3 deblock=1:0:0 analyse=0x3:0x113 me=hex subme=7 psy=1 psy_rd=1.00:0.00 mixed_ref=1 me_range=16 chroma_me=1 trellis=1 8x8dct=1 cqm=0 deadzone=21,11 fast_pskip=1 chroma_qp_offset=4 threads=22 lookahead_threads=3 sliced_threads=0 nr=0 decimate=1 interlaced=0 bluray_compat=0 constrained_intra=0 bframes=3 b_pyramid=2 b_adapt=1 b_bias=0 direct=1 weightb=1 open_gop=0 weightp=2 keyint=250 keyint_min=10 scenecut=40 intra_refresh=0 rc_lookahead=40 rc=crf mbtree=1 crf=23.0 qcomp=0.60 qpmin=0 qpmax=69 qpstep=4 ip_ratio=1.40 aq=1:1.00\n",
      "Output #0, mp4, to '/home/irmak/Workspace/Holo-Bot/extracted_data/cup_picking/after_rss/demonstration_3/visualization_1.mp4':\n",
      "  Metadata:\n",
      "    encoder         : Lavf59.27.100\n",
      "  Stream #0:0: Video: h264 (avc1 / 0x31637661), yuv444p(tv, progressive), 2000x720 [SAR 1:1 DAR 25:9], q=2-31, 10 fps, 10240 tbn\n",
      "    Metadata:\n",
      "      encoder         : Lavc59.37.100 libx264\n",
      "    Side data:\n",
      "      cpb: bitrate max/min/avg: 0/0/0 buffer size: 0 vbv_delay: N/A\n",
      "frame=   39 fps=0.0 q=-1.0 Lsize=    1041kB time=00:00:03.60 bitrate=2369.7kbits/s speed=3.91x    \n",
      "video:1040kB audio:0kB subtitle:0kB other streams:0kB global headers:0kB muxing overhead: 0.127792%\n",
      "[libx264 @ 0x560efcc60a80] frame I:1     Avg QP:21.48  size: 47427\n",
      "[libx264 @ 0x560efcc60a80] frame P:11    Avg QP:19.50  size: 42476\n",
      "[libx264 @ 0x560efcc60a80] frame B:27    Avg QP:21.04  size: 20358\n",
      "[libx264 @ 0x560efcc60a80] consecutive B-frames:  7.7%  0.0%  0.0% 92.3%\n",
      "[libx264 @ 0x560efcc60a80] mb I  I16..4: 29.8% 43.6% 26.6%\n",
      "[libx264 @ 0x560efcc60a80] mb P  I16..4:  4.1% 27.0%  1.8%  P16..4: 20.4% 10.2%  5.4%  0.0%  0.0%    skip:31.1%\n",
      "[libx264 @ 0x560efcc60a80] mb B  I16..4:  1.4% 12.6%  0.2%  B16..8: 24.1%  6.2%  1.5%  direct: 4.3%  skip:49.7%  L0:44.8% L1:47.7% BI: 7.5%\n",
      "[libx264 @ 0x560efcc60a80] 8x8 transform intra:80.5% inter:83.7%\n",
      "[libx264 @ 0x560efcc60a80] coded y,u,v intra: 59.6% 25.9% 25.1% inter: 19.4% 10.6% 9.7%\n",
      "[libx264 @ 0x560efcc60a80] i16 v,h,dc,p: 41% 25% 22% 13%\n",
      "[libx264 @ 0x560efcc60a80] i8 v,h,dc,ddl,ddr,vr,hd,vl,hu: 18% 18% 51%  3%  2%  2%  2%  2%  3%\n",
      "[libx264 @ 0x560efcc60a80] i4 v,h,dc,ddl,ddr,vr,hd,vl,hu: 36% 32% 14%  2%  3%  3%  4%  2%  4%\n",
      "[libx264 @ 0x560efcc60a80] Weighted P-Frames: Y:0.0% UV:0.0%\n",
      "[libx264 @ 0x560efcc60a80] ref P L0: 43.4%  8.6% 30.3% 17.7%\n",
      "[libx264 @ 0x560efcc60a80] ref B L0: 73.2% 21.0%  5.9%\n",
      "[libx264 @ 0x560efcc60a80] ref B L1: 88.6% 11.4%\n",
      "[libx264 @ 0x560efcc60a80] kb/s:2183.23\n",
      "ffmpeg version 5.1.2 Copyright (c) 2000-2022 the FFmpeg developers\n",
      "  built with gcc 10.4.0 (conda-forge gcc 10.4.0-18)\n",
      "  configuration: --prefix=/home/irmak/miniconda3/envs/tactile_learning --cc=/home/conda/feedstock_root/build_artifacts/ffmpeg_1666357487580/_build_env/bin/x86_64-conda-linux-gnu-cc --cxx=/home/conda/feedstock_root/build_artifacts/ffmpeg_1666357487580/_build_env/bin/x86_64-conda-linux-gnu-c++ --nm=/home/conda/feedstock_root/build_artifacts/ffmpeg_1666357487580/_build_env/bin/x86_64-conda-linux-gnu-nm --ar=/home/conda/feedstock_root/build_artifacts/ffmpeg_1666357487580/_build_env/bin/x86_64-conda-linux-gnu-ar --disable-doc --disable-openssl --enable-demuxer=dash --enable-hardcoded-tables --enable-libfreetype --enable-libfontconfig --enable-libopenh264 --enable-gnutls --enable-libmp3lame --enable-libvpx --enable-pthreads --enable-vaapi --enable-gpl --enable-libx264 --enable-libx265 --enable-libaom --enable-libsvtav1 --enable-libxml2 --enable-pic --enable-shared --disable-static --enable-version3 --enable-zlib --pkg-config=/home/conda/feedstock_root/build_artifacts/ffmpeg_1666357487580/_build_env/bin/pkg-config\n",
      "  libavutil      57. 28.100 / 57. 28.100\n",
      "  libavcodec     59. 37.100 / 59. 37.100\n",
      "  libavformat    59. 27.100 / 59. 27.100\n",
      "  libavdevice    59.  7.100 / 59.  7.100\n",
      "  libavfilter     8. 44.100 /  8. 44.100\n",
      "  libswscale      6.  7.100 /  6.  7.100\n",
      "  libswresample   4.  7.100 /  4.  7.100\n",
      "  libpostproc    56.  6.100 / 56.  6.100\n",
      "[image2 @ 0x55c02ee9f640] Pattern type 'glob_sequence' is deprecated: use pattern_type 'glob' instead\n",
      "Input #0, image2, from '/home/irmak/Workspace/Holo-Bot/extracted_data/cup_picking/after_rss/demonstration_1/visualization/%*.png':\n",
      "  Duration: 00:00:01.76, start: 0.000000, bitrate: N/A\n",
      "  Stream #0:0: Video: png, rgba(pc), 2000x2000 [SAR 3937:3937 DAR 1:1], 25 fps, 25 tbr, 25 tbn\n",
      "Stream mapping:\n",
      "  Stream #0:0 -> #0:0 (png (native) -> h264 (libx264))\n",
      "Press [q] to stop, [?] for help\n"
     ]
    },
    {
     "name": "stdout",
     "output_type": "stream",
     "text": [
      "dumping video in root: /home/irmak/Workspace/Holo-Bot/extracted_data/cup_picking/after_rss/demonstration_1\n"
     ]
    },
    {
     "name": "stderr",
     "output_type": "stream",
     "text": [
      "[libx264 @ 0x55c02eea5840] using SAR=1/1\n",
      "[libx264 @ 0x55c02eea5840] using cpu capabilities: MMX2 SSE2Fast SSSE3 SSE4.2 AVX FMA3 BMI2 AVX2\n",
      "[libx264 @ 0x55c02eea5840] profile High 4:4:4 Predictive, level 4.0, 4:4:4, 8-bit\n",
      "[libx264 @ 0x55c02eea5840] 264 - core 164 r3095 baee400 - H.264/MPEG-4 AVC codec - Copyleft 2003-2022 - http://www.videolan.org/x264.html - options: cabac=1 ref=3 deblock=1:0:0 analyse=0x3:0x113 me=hex subme=7 psy=1 psy_rd=1.00:0.00 mixed_ref=1 me_range=16 chroma_me=1 trellis=1 8x8dct=1 cqm=0 deadzone=21,11 fast_pskip=1 chroma_qp_offset=4 threads=22 lookahead_threads=3 sliced_threads=0 nr=0 decimate=1 interlaced=0 bluray_compat=0 constrained_intra=0 bframes=3 b_pyramid=2 b_adapt=1 b_bias=0 direct=1 weightb=1 open_gop=0 weightp=2 keyint=250 keyint_min=10 scenecut=40 intra_refresh=0 rc_lookahead=40 rc=crf mbtree=1 crf=23.0 qcomp=0.60 qpmin=0 qpmax=69 qpstep=4 ip_ratio=1.40 aq=1:1.00\n",
      "Output #0, mp4, to '/home/irmak/Workspace/Holo-Bot/extracted_data/cup_picking/after_rss/demonstration_1/visualization_1.mp4':\n",
      "  Metadata:\n",
      "    encoder         : Lavf59.27.100\n",
      "  Stream #0:0: Video: h264 (avc1 / 0x31637661), yuv444p(tv, progressive), 2000x720 [SAR 1:1 DAR 25:9], q=2-31, 10 fps, 10240 tbn\n",
      "    Metadata:\n",
      "      encoder         : Lavc59.37.100 libx264\n",
      "    Side data:\n",
      "      cpb: bitrate max/min/avg: 0/0/0 buffer size: 0 vbv_delay: N/A\n",
      "frame=   44 fps=0.0 q=-1.0 Lsize=    1058kB time=00:00:04.10 bitrate=2113.7kbits/s speed=4.34x    \n",
      "video:1057kB audio:0kB subtitle:0kB other streams:0kB global headers:0kB muxing overhead: 0.130604%\n",
      "[libx264 @ 0x55c02eea5840] frame I:1     Avg QP:22.01  size: 47759\n",
      "[libx264 @ 0x55c02eea5840] frame P:11    Avg QP:19.18  size: 41468\n",
      "[libx264 @ 0x55c02eea5840] frame B:32    Avg QP:20.76  size: 18041\n",
      "[libx264 @ 0x55c02eea5840] consecutive B-frames:  2.3%  0.0%  6.8% 90.9%\n",
      "[libx264 @ 0x55c02eea5840] mb I  I16..4: 31.8% 41.7% 26.4%\n",
      "[libx264 @ 0x55c02eea5840] mb P  I16..4:  4.0% 24.4%  1.8%  P16..4: 20.9% 10.6%  6.2%  0.0%  0.0%    skip:31.9%\n",
      "[libx264 @ 0x55c02eea5840] mb B  I16..4:  1.3% 13.7%  0.2%  B16..8: 22.5%  5.5%  1.3%  direct: 3.5%  skip:52.0%  L0:47.1% L1:46.4% BI: 6.5%\n",
      "[libx264 @ 0x55c02eea5840] 8x8 transform intra:81.6% inter:85.3%\n",
      "[libx264 @ 0x55c02eea5840] coded y,u,v intra: 59.4% 24.2% 22.5% inter: 17.1% 9.3% 8.2%\n",
      "[libx264 @ 0x55c02eea5840] i16 v,h,dc,p: 39% 26% 24% 11%\n",
      "[libx264 @ 0x55c02eea5840] i8 v,h,dc,ddl,ddr,vr,hd,vl,hu: 18% 18% 53%  2%  1%  2%  1%  2%  3%\n",
      "[libx264 @ 0x55c02eea5840] i4 v,h,dc,ddl,ddr,vr,hd,vl,hu: 36% 33% 14%  2%  3%  3%  4%  2%  4%\n",
      "[libx264 @ 0x55c02eea5840] Weighted P-Frames: Y:0.0% UV:0.0%\n",
      "[libx264 @ 0x55c02eea5840] ref P L0: 40.3%  7.6% 31.0% 21.1%\n",
      "[libx264 @ 0x55c02eea5840] ref B L0: 67.4% 25.2%  7.4%\n",
      "[libx264 @ 0x55c02eea5840] ref B L1: 88.9% 11.1%\n",
      "[libx264 @ 0x55c02eea5840] kb/s:1965.84\n",
      "ffmpeg version 5.1.2 Copyright (c) 2000-2022 the FFmpeg developers\n",
      "  built with gcc 10.4.0 (conda-forge gcc 10.4.0-18)\n",
      "  configuration: --prefix=/home/irmak/miniconda3/envs/tactile_learning --cc=/home/conda/feedstock_root/build_artifacts/ffmpeg_1666357487580/_build_env/bin/x86_64-conda-linux-gnu-cc --cxx=/home/conda/feedstock_root/build_artifacts/ffmpeg_1666357487580/_build_env/bin/x86_64-conda-linux-gnu-c++ --nm=/home/conda/feedstock_root/build_artifacts/ffmpeg_1666357487580/_build_env/bin/x86_64-conda-linux-gnu-nm --ar=/home/conda/feedstock_root/build_artifacts/ffmpeg_1666357487580/_build_env/bin/x86_64-conda-linux-gnu-ar --disable-doc --disable-openssl --enable-demuxer=dash --enable-hardcoded-tables --enable-libfreetype --enable-libfontconfig --enable-libopenh264 --enable-gnutls --enable-libmp3lame --enable-libvpx --enable-pthreads --enable-vaapi --enable-gpl --enable-libx264 --enable-libx265 --enable-libaom --enable-libsvtav1 --enable-libxml2 --enable-pic --enable-shared --disable-static --enable-version3 --enable-zlib --pkg-config=/home/conda/feedstock_root/build_artifacts/ffmpeg_1666357487580/_build_env/bin/pkg-config\n",
      "  libavutil      57. 28.100 / 57. 28.100\n",
      "  libavcodec     59. 37.100 / 59. 37.100\n",
      "  libavformat    59. 27.100 / 59. 27.100\n",
      "  libavdevice    59.  7.100 / 59.  7.100\n",
      "  libavfilter     8. 44.100 /  8. 44.100\n",
      "  libswscale      6.  7.100 /  6.  7.100\n",
      "  libswresample   4.  7.100 /  4.  7.100\n",
      "  libpostproc    56.  6.100 / 56.  6.100\n",
      "[image2 @ 0x557b0a843640] Pattern type 'glob_sequence' is deprecated: use pattern_type 'glob' instead\n",
      "Input #0, image2, from '/home/irmak/Workspace/Holo-Bot/extracted_data/cup_picking/after_rss/demonstration_2/visualization/%*.png':\n",
      "  Duration: 00:00:01.56, start: 0.000000, bitrate: N/A\n",
      "  Stream #0:0: Video: png, rgba(pc), 2000x2000 [SAR 3937:3937 DAR 1:1], 25 fps, 25 tbr, 25 tbn\n",
      "Stream mapping:\n",
      "  Stream #0:0 -> #0:0 (png (native) -> h264 (libx264))\n",
      "Press [q] to stop, [?] for help\n"
     ]
    },
    {
     "name": "stdout",
     "output_type": "stream",
     "text": [
      "dumping video in root: /home/irmak/Workspace/Holo-Bot/extracted_data/cup_picking/after_rss/demonstration_2\n"
     ]
    },
    {
     "name": "stderr",
     "output_type": "stream",
     "text": [
      "[libx264 @ 0x557b0a849480] using SAR=1/1\n",
      "[libx264 @ 0x557b0a849480] using cpu capabilities: MMX2 SSE2Fast SSSE3 SSE4.2 AVX FMA3 BMI2 AVX2\n",
      "[libx264 @ 0x557b0a849480] profile High 4:4:4 Predictive, level 4.0, 4:4:4, 8-bit\n",
      "[libx264 @ 0x557b0a849480] 264 - core 164 r3095 baee400 - H.264/MPEG-4 AVC codec - Copyleft 2003-2022 - http://www.videolan.org/x264.html - options: cabac=1 ref=3 deblock=1:0:0 analyse=0x3:0x113 me=hex subme=7 psy=1 psy_rd=1.00:0.00 mixed_ref=1 me_range=16 chroma_me=1 trellis=1 8x8dct=1 cqm=0 deadzone=21,11 fast_pskip=1 chroma_qp_offset=4 threads=22 lookahead_threads=3 sliced_threads=0 nr=0 decimate=1 interlaced=0 bluray_compat=0 constrained_intra=0 bframes=3 b_pyramid=2 b_adapt=1 b_bias=0 direct=1 weightb=1 open_gop=0 weightp=2 keyint=250 keyint_min=10 scenecut=40 intra_refresh=0 rc_lookahead=40 rc=crf mbtree=1 crf=23.0 qcomp=0.60 qpmin=0 qpmax=69 qpstep=4 ip_ratio=1.40 aq=1:1.00\n",
      "Output #0, mp4, to '/home/irmak/Workspace/Holo-Bot/extracted_data/cup_picking/after_rss/demonstration_2/visualization_1.mp4':\n",
      "  Metadata:\n",
      "    encoder         : Lavf59.27.100\n",
      "  Stream #0:0: Video: h264 (avc1 / 0x31637661), yuv444p(tv, progressive), 2000x720 [SAR 1:1 DAR 25:9], q=2-31, 10 fps, 10240 tbn\n",
      "    Metadata:\n",
      "      encoder         : Lavc59.37.100 libx264\n",
      "    Side data:\n",
      "      cpb: bitrate max/min/avg: 0/0/0 buffer size: 0 vbv_delay: N/A\n",
      "frame=   39 fps=0.0 q=-1.0 Lsize=     974kB time=00:00:03.60 bitrate=2215.9kbits/s speed=3.87x    \n",
      "video:972kB audio:0kB subtitle:0kB other streams:0kB global headers:0kB muxing overhead: 0.135064%\n",
      "[libx264 @ 0x557b0a849480] frame I:1     Avg QP:22.35  size: 50182\n",
      "[libx264 @ 0x557b0a849480] frame P:10    Avg QP:19.20  size: 42174\n",
      "[libx264 @ 0x557b0a849480] frame B:28    Avg QP:20.68  size: 18686\n",
      "[libx264 @ 0x557b0a849480] consecutive B-frames:  2.6%  5.1%  0.0% 92.3%\n",
      "[libx264 @ 0x557b0a849480] mb I  I16..4: 28.8% 43.0% 28.2%\n",
      "[libx264 @ 0x557b0a849480] mb P  I16..4:  3.5% 25.8%  1.6%  P16..4: 20.3% 10.2%  5.6%  0.0%  0.0%    skip:33.0%\n",
      "[libx264 @ 0x557b0a849480] mb B  I16..4:  1.2% 15.3%  0.1%  B16..8: 20.5%  4.8%  1.2%  direct: 4.0%  skip:52.9%  L0:46.4% L1:47.1% BI: 6.5%\n",
      "[libx264 @ 0x557b0a849480] 8x8 transform intra:83.6% inter:84.9%\n",
      "[libx264 @ 0x557b0a849480] coded y,u,v intra: 62.5% 26.0% 24.8% inter: 17.9% 9.6% 8.8%\n",
      "[libx264 @ 0x557b0a849480] i16 v,h,dc,p: 39% 26% 23% 12%\n",
      "[libx264 @ 0x557b0a849480] i8 v,h,dc,ddl,ddr,vr,hd,vl,hu: 18% 18% 53%  2%  1%  2%  1%  2%  3%\n",
      "[libx264 @ 0x557b0a849480] i4 v,h,dc,ddl,ddr,vr,hd,vl,hu: 38% 34% 12%  2%  2%  3%  4%  2%  4%\n",
      "[libx264 @ 0x557b0a849480] Weighted P-Frames: Y:0.0% UV:0.0%\n",
      "[libx264 @ 0x557b0a849480] ref P L0: 39.5%  7.8% 33.9% 18.9%\n",
      "[libx264 @ 0x557b0a849480] ref B L0: 66.6% 27.0%  6.4%\n",
      "[libx264 @ 0x557b0a849480] ref B L1: 86.8% 13.2%\n",
      "[libx264 @ 0x557b0a849480] kb/s:2041.30\n",
      "ffmpeg version 5.1.2 Copyright (c) 2000-2022 the FFmpeg developers\n",
      "  built with gcc 10.4.0 (conda-forge gcc 10.4.0-18)\n",
      "  configuration: --prefix=/home/irmak/miniconda3/envs/tactile_learning --cc=/home/conda/feedstock_root/build_artifacts/ffmpeg_1666357487580/_build_env/bin/x86_64-conda-linux-gnu-cc --cxx=/home/conda/feedstock_root/build_artifacts/ffmpeg_1666357487580/_build_env/bin/x86_64-conda-linux-gnu-c++ --nm=/home/conda/feedstock_root/build_artifacts/ffmpeg_1666357487580/_build_env/bin/x86_64-conda-linux-gnu-nm --ar=/home/conda/feedstock_root/build_artifacts/ffmpeg_1666357487580/_build_env/bin/x86_64-conda-linux-gnu-ar --disable-doc --disable-openssl --enable-demuxer=dash --enable-hardcoded-tables --enable-libfreetype --enable-libfontconfig --enable-libopenh264 --enable-gnutls --enable-libmp3lame --enable-libvpx --enable-pthreads --enable-vaapi --enable-gpl --enable-libx264 --enable-libx265 --enable-libaom --enable-libsvtav1 --enable-libxml2 --enable-pic --enable-shared --disable-static --enable-version3 --enable-zlib --pkg-config=/home/conda/feedstock_root/build_artifacts/ffmpeg_1666357487580/_build_env/bin/pkg-config\n",
      "  libavutil      57. 28.100 / 57. 28.100\n",
      "  libavcodec     59. 37.100 / 59. 37.100\n",
      "  libavformat    59. 27.100 / 59. 27.100\n",
      "  libavdevice    59.  7.100 / 59.  7.100\n",
      "  libavfilter     8. 44.100 /  8. 44.100\n",
      "  libswscale      6.  7.100 /  6.  7.100\n",
      "  libswresample   4.  7.100 /  4.  7.100\n",
      "  libpostproc    56.  6.100 / 56.  6.100\n",
      "[image2 @ 0x56305bd6d640] Pattern type 'glob_sequence' is deprecated: use pattern_type 'glob' instead\n",
      "Input #0, image2, from '/home/irmak/Workspace/Holo-Bot/extracted_data/cup_picking/after_rss/demonstration_9/visualization/%*.png':\n",
      "  Duration: 00:00:01.68, start: 0.000000, bitrate: N/A\n",
      "  Stream #0:0: Video: png, rgba(pc), 2000x2000 [SAR 3937:3937 DAR 1:1], 25 fps, 25 tbr, 25 tbn\n",
      "Stream mapping:\n",
      "  Stream #0:0 -> #0:0 (png (native) -> h264 (libx264))\n",
      "Press [q] to stop, [?] for help\n"
     ]
    },
    {
     "name": "stdout",
     "output_type": "stream",
     "text": [
      "dumping video in root: /home/irmak/Workspace/Holo-Bot/extracted_data/cup_picking/after_rss/demonstration_9\n"
     ]
    },
    {
     "name": "stderr",
     "output_type": "stream",
     "text": [
      "[libx264 @ 0x56305bd74c00] using SAR=1/1\n",
      "[libx264 @ 0x56305bd74c00] using cpu capabilities: MMX2 SSE2Fast SSSE3 SSE4.2 AVX FMA3 BMI2 AVX2\n",
      "[libx264 @ 0x56305bd74c00] profile High 4:4:4 Predictive, level 4.0, 4:4:4, 8-bit\n",
      "[libx264 @ 0x56305bd74c00] 264 - core 164 r3095 baee400 - H.264/MPEG-4 AVC codec - Copyleft 2003-2022 - http://www.videolan.org/x264.html - options: cabac=1 ref=3 deblock=1:0:0 analyse=0x3:0x113 me=hex subme=7 psy=1 psy_rd=1.00:0.00 mixed_ref=1 me_range=16 chroma_me=1 trellis=1 8x8dct=1 cqm=0 deadzone=21,11 fast_pskip=1 chroma_qp_offset=4 threads=22 lookahead_threads=3 sliced_threads=0 nr=0 decimate=1 interlaced=0 bluray_compat=0 constrained_intra=0 bframes=3 b_pyramid=2 b_adapt=1 b_bias=0 direct=1 weightb=1 open_gop=0 weightp=2 keyint=250 keyint_min=10 scenecut=40 intra_refresh=0 rc_lookahead=40 rc=crf mbtree=1 crf=23.0 qcomp=0.60 qpmin=0 qpmax=69 qpstep=4 ip_ratio=1.40 aq=1:1.00\n",
      "Output #0, mp4, to '/home/irmak/Workspace/Holo-Bot/extracted_data/cup_picking/after_rss/demonstration_9/visualization_1.mp4':\n",
      "  Metadata:\n",
      "    encoder         : Lavf59.27.100\n",
      "  Stream #0:0: Video: h264 (avc1 / 0x31637661), yuv444p(tv, progressive), 2000x720 [SAR 1:1 DAR 25:9], q=2-31, 10 fps, 10240 tbn\n",
      "    Metadata:\n",
      "      encoder         : Lavc59.37.100 libx264\n",
      "    Side data:\n",
      "      cpb: bitrate max/min/avg: 0/0/0 buffer size: 0 vbv_delay: N/A\n",
      "frame=   42 fps=0.0 q=-1.0 Lsize=    1160kB time=00:00:03.90 bitrate=2436.2kbits/s speed=4.08x    \n",
      "video:1158kB audio:0kB subtitle:0kB other streams:0kB global headers:0kB muxing overhead: 0.117762%\n",
      "[libx264 @ 0x56305bd74c00] frame I:1     Avg QP:22.14  size: 47516\n",
      "[libx264 @ 0x56305bd74c00] frame P:11    Avg QP:19.47  size: 42884\n",
      "[libx264 @ 0x56305bd74c00] frame B:30    Avg QP:21.00  size: 22212\n",
      "[libx264 @ 0x56305bd74c00] consecutive B-frames:  4.8%  0.0%  0.0% 95.2%\n",
      "[libx264 @ 0x56305bd74c00] mb I  I16..4: 28.5% 45.4% 26.2%\n",
      "[libx264 @ 0x56305bd74c00] mb P  I16..4:  3.6% 27.7%  1.8%  P16..4: 19.2% 10.0%  5.7%  0.0%  0.0%    skip:32.1%\n",
      "[libx264 @ 0x56305bd74c00] mb B  I16..4:  1.3% 21.8%  0.2%  B16..8: 16.6%  5.0%  1.4%  direct: 3.6%  skip:50.1%  L0:46.8% L1:45.5% BI: 7.7%\n",
      "[libx264 @ 0x56305bd74c00] 8x8 transform intra:86.4% inter:83.4%\n",
      "[libx264 @ 0x56305bd74c00] coded y,u,v intra: 67.1% 28.3% 27.1% inter: 17.8% 9.0% 8.4%\n",
      "[libx264 @ 0x56305bd74c00] i16 v,h,dc,p: 39% 26% 23% 12%\n",
      "[libx264 @ 0x56305bd74c00] i8 v,h,dc,ddl,ddr,vr,hd,vl,hu: 18% 18% 53%  2%  1%  2%  1%  2%  3%\n",
      "[libx264 @ 0x56305bd74c00] i4 v,h,dc,ddl,ddr,vr,hd,vl,hu: 37% 32% 13%  2%  2%  3%  4%  2%  4%\n",
      "[libx264 @ 0x56305bd74c00] Weighted P-Frames: Y:0.0% UV:0.0%\n",
      "[libx264 @ 0x56305bd74c00] ref P L0: 41.7%  8.5% 30.9% 18.9%\n",
      "[libx264 @ 0x56305bd74c00] ref B L0: 67.0% 24.4%  8.5%\n",
      "[libx264 @ 0x56305bd74c00] ref B L1: 89.9% 10.1%\n",
      "[libx264 @ 0x56305bd74c00] kb/s:2258.29\n",
      "ffmpeg version 5.1.2 Copyright (c) 2000-2022 the FFmpeg developers\n",
      "  built with gcc 10.4.0 (conda-forge gcc 10.4.0-18)\n",
      "  configuration: --prefix=/home/irmak/miniconda3/envs/tactile_learning --cc=/home/conda/feedstock_root/build_artifacts/ffmpeg_1666357487580/_build_env/bin/x86_64-conda-linux-gnu-cc --cxx=/home/conda/feedstock_root/build_artifacts/ffmpeg_1666357487580/_build_env/bin/x86_64-conda-linux-gnu-c++ --nm=/home/conda/feedstock_root/build_artifacts/ffmpeg_1666357487580/_build_env/bin/x86_64-conda-linux-gnu-nm --ar=/home/conda/feedstock_root/build_artifacts/ffmpeg_1666357487580/_build_env/bin/x86_64-conda-linux-gnu-ar --disable-doc --disable-openssl --enable-demuxer=dash --enable-hardcoded-tables --enable-libfreetype --enable-libfontconfig --enable-libopenh264 --enable-gnutls --enable-libmp3lame --enable-libvpx --enable-pthreads --enable-vaapi --enable-gpl --enable-libx264 --enable-libx265 --enable-libaom --enable-libsvtav1 --enable-libxml2 --enable-pic --enable-shared --disable-static --enable-version3 --enable-zlib --pkg-config=/home/conda/feedstock_root/build_artifacts/ffmpeg_1666357487580/_build_env/bin/pkg-config\n",
      "  libavutil      57. 28.100 / 57. 28.100\n",
      "  libavcodec     59. 37.100 / 59. 37.100\n",
      "  libavformat    59. 27.100 / 59. 27.100\n",
      "  libavdevice    59.  7.100 / 59.  7.100\n",
      "  libavfilter     8. 44.100 /  8. 44.100\n",
      "  libswscale      6.  7.100 /  6.  7.100\n",
      "  libswresample   4.  7.100 /  4.  7.100\n",
      "  libpostproc    56.  6.100 / 56.  6.100\n",
      "[image2 @ 0x564f21b4c640] Pattern type 'glob_sequence' is deprecated: use pattern_type 'glob' instead\n",
      "Input #0, image2, from '/home/irmak/Workspace/Holo-Bot/extracted_data/cup_picking/after_rss/demonstration_6/visualization/%*.png':\n",
      "  Duration: 00:00:01.48, start: 0.000000, bitrate: N/A\n",
      "  Stream #0:0: Video: png, rgba(pc), 2000x2000 [SAR 3937:3937 DAR 1:1], 25 fps, 25 tbr, 25 tbn\n",
      "Stream mapping:\n",
      "  Stream #0:0 -> #0:0 (png (native) -> h264 (libx264))\n",
      "Press [q] to stop, [?] for help\n"
     ]
    },
    {
     "name": "stdout",
     "output_type": "stream",
     "text": [
      "dumping video in root: /home/irmak/Workspace/Holo-Bot/extracted_data/cup_picking/after_rss/demonstration_6\n"
     ]
    },
    {
     "name": "stderr",
     "output_type": "stream",
     "text": [
      "[libx264 @ 0x564f21b52380] using SAR=1/1\n",
      "[libx264 @ 0x564f21b52380] using cpu capabilities: MMX2 SSE2Fast SSSE3 SSE4.2 AVX FMA3 BMI2 AVX2\n",
      "[libx264 @ 0x564f21b52380] profile High 4:4:4 Predictive, level 4.0, 4:4:4, 8-bit\n",
      "[libx264 @ 0x564f21b52380] 264 - core 164 r3095 baee400 - H.264/MPEG-4 AVC codec - Copyleft 2003-2022 - http://www.videolan.org/x264.html - options: cabac=1 ref=3 deblock=1:0:0 analyse=0x3:0x113 me=hex subme=7 psy=1 psy_rd=1.00:0.00 mixed_ref=1 me_range=16 chroma_me=1 trellis=1 8x8dct=1 cqm=0 deadzone=21,11 fast_pskip=1 chroma_qp_offset=4 threads=22 lookahead_threads=3 sliced_threads=0 nr=0 decimate=1 interlaced=0 bluray_compat=0 constrained_intra=0 bframes=3 b_pyramid=2 b_adapt=1 b_bias=0 direct=1 weightb=1 open_gop=0 weightp=2 keyint=250 keyint_min=10 scenecut=40 intra_refresh=0 rc_lookahead=40 rc=crf mbtree=1 crf=23.0 qcomp=0.60 qpmin=0 qpmax=69 qpstep=4 ip_ratio=1.40 aq=1:1.00\n",
      "Output #0, mp4, to '/home/irmak/Workspace/Holo-Bot/extracted_data/cup_picking/after_rss/demonstration_6/visualization_1.mp4':\n",
      "  Metadata:\n",
      "    encoder         : Lavf59.27.100\n",
      "  Stream #0:0: Video: h264 (avc1 / 0x31637661), yuv444p(tv, progressive), 2000x720 [SAR 1:1 DAR 25:9], q=2-31, 10 fps, 10240 tbn\n",
      "    Metadata:\n",
      "      encoder         : Lavc59.37.100 libx264\n",
      "    Side data:\n",
      "      cpb: bitrate max/min/avg: 0/0/0 buffer size: 0 vbv_delay: N/A\n",
      "frame=   37 fps=0.0 q=-1.0 Lsize=     995kB time=00:00:03.40 bitrate=2397.0kbits/s speed= 3.8x    \n",
      "video:994kB audio:0kB subtitle:0kB other streams:0kB global headers:0kB muxing overhead: 0.129838%\n",
      "[libx264 @ 0x564f21b52380] frame I:1     Avg QP:22.06  size: 47559\n",
      "[libx264 @ 0x564f21b52380] frame P:9     Avg QP:19.30  size: 44069\n",
      "[libx264 @ 0x564f21b52380] frame B:27    Avg QP:20.85  size: 21206\n",
      "[libx264 @ 0x564f21b52380] consecutive B-frames:  2.7%  0.0%  0.0% 97.3%\n",
      "[libx264 @ 0x564f21b52380] mb I  I16..4: 27.5% 46.2% 26.3%\n",
      "[libx264 @ 0x564f21b52380] mb P  I16..4:  4.0% 30.0%  2.2%  P16..4: 18.2%  9.8%  5.2%  0.0%  0.0%    skip:30.6%\n",
      "[libx264 @ 0x564f21b52380] mb B  I16..4:  1.3% 16.3%  0.3%  B16..8: 21.8%  5.7%  1.4%  direct: 3.8%  skip:49.4%  L0:47.4% L1:45.4% BI: 7.1%\n",
      "[libx264 @ 0x564f21b52380] 8x8 transform intra:83.0% inter:83.8%\n",
      "[libx264 @ 0x564f21b52380] coded y,u,v intra: 62.5% 26.6% 26.1% inter: 18.3% 10.0% 9.6%\n",
      "[libx264 @ 0x564f21b52380] i16 v,h,dc,p: 38% 27% 23% 11%\n",
      "[libx264 @ 0x564f21b52380] i8 v,h,dc,ddl,ddr,vr,hd,vl,hu: 18% 18% 51%  2%  2%  2%  2%  2%  3%\n",
      "[libx264 @ 0x564f21b52380] i4 v,h,dc,ddl,ddr,vr,hd,vl,hu: 35% 32% 14%  2%  3%  4%  4%  2%  4%\n",
      "[libx264 @ 0x564f21b52380] Weighted P-Frames: Y:0.0% UV:0.0%\n",
      "[libx264 @ 0x564f21b52380] ref P L0: 42.0%  7.5% 30.8% 19.6%\n",
      "[libx264 @ 0x564f21b52380] ref B L0: 69.4% 24.1%  6.5%\n",
      "[libx264 @ 0x564f21b52380] ref B L1: 89.4% 10.6%\n",
      "[libx264 @ 0x564f21b52380] kb/s:2198.34\n",
      "ffmpeg version 5.1.2 Copyright (c) 2000-2022 the FFmpeg developers\n",
      "  built with gcc 10.4.0 (conda-forge gcc 10.4.0-18)\n",
      "  configuration: --prefix=/home/irmak/miniconda3/envs/tactile_learning --cc=/home/conda/feedstock_root/build_artifacts/ffmpeg_1666357487580/_build_env/bin/x86_64-conda-linux-gnu-cc --cxx=/home/conda/feedstock_root/build_artifacts/ffmpeg_1666357487580/_build_env/bin/x86_64-conda-linux-gnu-c++ --nm=/home/conda/feedstock_root/build_artifacts/ffmpeg_1666357487580/_build_env/bin/x86_64-conda-linux-gnu-nm --ar=/home/conda/feedstock_root/build_artifacts/ffmpeg_1666357487580/_build_env/bin/x86_64-conda-linux-gnu-ar --disable-doc --disable-openssl --enable-demuxer=dash --enable-hardcoded-tables --enable-libfreetype --enable-libfontconfig --enable-libopenh264 --enable-gnutls --enable-libmp3lame --enable-libvpx --enable-pthreads --enable-vaapi --enable-gpl --enable-libx264 --enable-libx265 --enable-libaom --enable-libsvtav1 --enable-libxml2 --enable-pic --enable-shared --disable-static --enable-version3 --enable-zlib --pkg-config=/home/conda/feedstock_root/build_artifacts/ffmpeg_1666357487580/_build_env/bin/pkg-config\n",
      "  libavutil      57. 28.100 / 57. 28.100\n",
      "  libavcodec     59. 37.100 / 59. 37.100\n",
      "  libavformat    59. 27.100 / 59. 27.100\n",
      "  libavdevice    59.  7.100 / 59.  7.100\n",
      "  libavfilter     8. 44.100 /  8. 44.100\n",
      "  libswscale      6.  7.100 /  6.  7.100\n",
      "  libswresample   4.  7.100 /  4.  7.100\n",
      "  libpostproc    56.  6.100 / 56.  6.100\n",
      "[image2 @ 0x555b04075640] Pattern type 'glob_sequence' is deprecated: use pattern_type 'glob' instead\n",
      "Input #0, image2, from '/home/irmak/Workspace/Holo-Bot/extracted_data/cup_picking/after_rss/demonstration_7/visualization/%*.png':\n",
      "  Duration: 00:00:02.04, start: 0.000000, bitrate: N/A\n",
      "  Stream #0:0: Video: png, rgba(pc), 2000x2000 [SAR 3937:3937 DAR 1:1], 25 fps, 25 tbr, 25 tbn\n",
      "Stream mapping:\n",
      "  Stream #0:0 -> #0:0 (png (native) -> h264 (libx264))\n",
      "Press [q] to stop, [?] for help\n"
     ]
    },
    {
     "name": "stdout",
     "output_type": "stream",
     "text": [
      "dumping video in root: /home/irmak/Workspace/Holo-Bot/extracted_data/cup_picking/after_rss/demonstration_7\n"
     ]
    },
    {
     "name": "stderr",
     "output_type": "stream",
     "text": [
      "[libx264 @ 0x555b04090dc0] using SAR=1/1\n",
      "[libx264 @ 0x555b04090dc0] using cpu capabilities: MMX2 SSE2Fast SSSE3 SSE4.2 AVX FMA3 BMI2 AVX2\n",
      "[libx264 @ 0x555b04090dc0] profile High 4:4:4 Predictive, level 4.0, 4:4:4, 8-bit\n",
      "[libx264 @ 0x555b04090dc0] 264 - core 164 r3095 baee400 - H.264/MPEG-4 AVC codec - Copyleft 2003-2022 - http://www.videolan.org/x264.html - options: cabac=1 ref=3 deblock=1:0:0 analyse=0x3:0x113 me=hex subme=7 psy=1 psy_rd=1.00:0.00 mixed_ref=1 me_range=16 chroma_me=1 trellis=1 8x8dct=1 cqm=0 deadzone=21,11 fast_pskip=1 chroma_qp_offset=4 threads=22 lookahead_threads=3 sliced_threads=0 nr=0 decimate=1 interlaced=0 bluray_compat=0 constrained_intra=0 bframes=3 b_pyramid=2 b_adapt=1 b_bias=0 direct=1 weightb=1 open_gop=0 weightp=2 keyint=250 keyint_min=10 scenecut=40 intra_refresh=0 rc_lookahead=40 rc=crf mbtree=1 crf=23.0 qcomp=0.60 qpmin=0 qpmax=69 qpstep=4 ip_ratio=1.40 aq=1:1.00\n",
      "Output #0, mp4, to '/home/irmak/Workspace/Holo-Bot/extracted_data/cup_picking/after_rss/demonstration_7/visualization_1.mp4':\n",
      "  Metadata:\n",
      "    encoder         : Lavf59.27.100\n",
      "  Stream #0:0: Video: h264 (avc1 / 0x31637661), yuv444p(tv, progressive), 2000x720 [SAR 1:1 DAR 25:9], q=2-31, 10 fps, 10240 tbn\n",
      "    Metadata:\n",
      "      encoder         : Lavc59.37.100 libx264\n",
      "    Side data:\n",
      "      cpb: bitrate max/min/avg: 0/0/0 buffer size: 0 vbv_delay: N/A\n",
      "frame=   51 fps= 49 q=-1.0 Lsize=    1325kB time=00:00:04.80 bitrate=2261.5kbits/s speed=4.64x    \n",
      "video:1324kB audio:0kB subtitle:0kB other streams:0kB global headers:0kB muxing overhead: 0.111037%\n",
      "[libx264 @ 0x555b04090dc0] frame I:1     Avg QP:21.96  size: 48156\n",
      "[libx264 @ 0x555b04090dc0] frame P:13    Avg QP:19.29  size: 44740\n",
      "[libx264 @ 0x555b04090dc0] frame B:37    Avg QP:21.03  size: 19593\n",
      "[libx264 @ 0x555b04090dc0] consecutive B-frames:  2.0%  3.9%  0.0% 94.1%\n",
      "[libx264 @ 0x555b04090dc0] mb I  I16..4: 31.9% 41.5% 26.7%\n",
      "[libx264 @ 0x555b04090dc0] mb P  I16..4:  3.9% 27.7%  1.7%  P16..4: 19.9% 10.4%  5.7%  0.0%  0.0%    skip:30.7%\n",
      "[libx264 @ 0x555b04090dc0] mb B  I16..4:  1.4% 12.4%  0.2%  B16..8: 24.0%  5.9%  1.5%  direct: 4.0%  skip:50.6%  L0:49.1% L1:43.9% BI: 7.0%\n",
      "[libx264 @ 0x555b04090dc0] 8x8 transform intra:81.9% inter:83.5%\n",
      "[libx264 @ 0x555b04090dc0] coded y,u,v intra: 60.6% 26.2% 26.0% inter: 18.6% 10.5% 9.7%\n",
      "[libx264 @ 0x555b04090dc0] i16 v,h,dc,p: 40% 24% 24% 12%\n",
      "[libx264 @ 0x555b04090dc0] i8 v,h,dc,ddl,ddr,vr,hd,vl,hu: 18% 18% 51%  3%  2%  2%  2%  2%  3%\n",
      "[libx264 @ 0x555b04090dc0] i4 v,h,dc,ddl,ddr,vr,hd,vl,hu: 36% 32% 14%  2%  3%  4%  4%  2%  4%\n",
      "[libx264 @ 0x555b04090dc0] Weighted P-Frames: Y:0.0% UV:0.0%\n",
      "[libx264 @ 0x555b04090dc0] ref P L0: 43.2%  7.6% 28.9% 20.3%\n",
      "[libx264 @ 0x555b04090dc0] ref B L0: 71.9% 21.5%  6.6%\n",
      "[libx264 @ 0x555b04090dc0] ref B L1: 88.5% 11.5%\n",
      "[libx264 @ 0x555b04090dc0] kb/s:2125.04\n",
      "ffmpeg version 5.1.2 Copyright (c) 2000-2022 the FFmpeg developers\n",
      "  built with gcc 10.4.0 (conda-forge gcc 10.4.0-18)\n",
      "  configuration: --prefix=/home/irmak/miniconda3/envs/tactile_learning --cc=/home/conda/feedstock_root/build_artifacts/ffmpeg_1666357487580/_build_env/bin/x86_64-conda-linux-gnu-cc --cxx=/home/conda/feedstock_root/build_artifacts/ffmpeg_1666357487580/_build_env/bin/x86_64-conda-linux-gnu-c++ --nm=/home/conda/feedstock_root/build_artifacts/ffmpeg_1666357487580/_build_env/bin/x86_64-conda-linux-gnu-nm --ar=/home/conda/feedstock_root/build_artifacts/ffmpeg_1666357487580/_build_env/bin/x86_64-conda-linux-gnu-ar --disable-doc --disable-openssl --enable-demuxer=dash --enable-hardcoded-tables --enable-libfreetype --enable-libfontconfig --enable-libopenh264 --enable-gnutls --enable-libmp3lame --enable-libvpx --enable-pthreads --enable-vaapi --enable-gpl --enable-libx264 --enable-libx265 --enable-libaom --enable-libsvtav1 --enable-libxml2 --enable-pic --enable-shared --disable-static --enable-version3 --enable-zlib --pkg-config=/home/conda/feedstock_root/build_artifacts/ffmpeg_1666357487580/_build_env/bin/pkg-config\n",
      "  libavutil      57. 28.100 / 57. 28.100\n",
      "  libavcodec     59. 37.100 / 59. 37.100\n",
      "  libavformat    59. 27.100 / 59. 27.100\n",
      "  libavdevice    59.  7.100 / 59.  7.100\n",
      "  libavfilter     8. 44.100 /  8. 44.100\n",
      "  libswscale      6.  7.100 /  6.  7.100\n",
      "  libswresample   4.  7.100 /  4.  7.100\n",
      "  libpostproc    56.  6.100 / 56.  6.100\n",
      "[image2 @ 0x558906cef640] Pattern type 'glob_sequence' is deprecated: use pattern_type 'glob' instead\n",
      "Input #0, image2, from '/home/irmak/Workspace/Holo-Bot/extracted_data/cup_picking/after_rss/demonstration_5/visualization/%*.png':\n",
      "  Duration: 00:00:01.80, start: 0.000000, bitrate: N/A\n",
      "  Stream #0:0: Video: png, rgba(pc), 2000x2000 [SAR 3937:3937 DAR 1:1], 25 fps, 25 tbr, 25 tbn\n",
      "Stream mapping:\n",
      "  Stream #0:0 -> #0:0 (png (native) -> h264 (libx264))\n",
      "Press [q] to stop, [?] for help\n"
     ]
    },
    {
     "name": "stdout",
     "output_type": "stream",
     "text": [
      "dumping video in root: /home/irmak/Workspace/Holo-Bot/extracted_data/cup_picking/after_rss/demonstration_5\n"
     ]
    },
    {
     "name": "stderr",
     "output_type": "stream",
     "text": [
      "[libx264 @ 0x558906cf90c0] using SAR=1/1\n",
      "[libx264 @ 0x558906cf90c0] using cpu capabilities: MMX2 SSE2Fast SSSE3 SSE4.2 AVX FMA3 BMI2 AVX2\n",
      "[libx264 @ 0x558906cf90c0] profile High 4:4:4 Predictive, level 4.0, 4:4:4, 8-bit\n",
      "[libx264 @ 0x558906cf90c0] 264 - core 164 r3095 baee400 - H.264/MPEG-4 AVC codec - Copyleft 2003-2022 - http://www.videolan.org/x264.html - options: cabac=1 ref=3 deblock=1:0:0 analyse=0x3:0x113 me=hex subme=7 psy=1 psy_rd=1.00:0.00 mixed_ref=1 me_range=16 chroma_me=1 trellis=1 8x8dct=1 cqm=0 deadzone=21,11 fast_pskip=1 chroma_qp_offset=4 threads=22 lookahead_threads=3 sliced_threads=0 nr=0 decimate=1 interlaced=0 bluray_compat=0 constrained_intra=0 bframes=3 b_pyramid=2 b_adapt=1 b_bias=0 direct=1 weightb=1 open_gop=0 weightp=2 keyint=250 keyint_min=10 scenecut=40 intra_refresh=0 rc_lookahead=40 rc=crf mbtree=1 crf=23.0 qcomp=0.60 qpmin=0 qpmax=69 qpstep=4 ip_ratio=1.40 aq=1:1.00\n",
      "Output #0, mp4, to '/home/irmak/Workspace/Holo-Bot/extracted_data/cup_picking/after_rss/demonstration_5/visualization_1.mp4':\n",
      "  Metadata:\n",
      "    encoder         : Lavf59.27.100\n",
      "  Stream #0:0: Video: h264 (avc1 / 0x31637661), yuv444p(tv, progressive), 2000x720 [SAR 1:1 DAR 25:9], q=2-31, 10 fps, 10240 tbn\n",
      "    Metadata:\n",
      "      encoder         : Lavc59.37.100 libx264\n",
      "    Side data:\n",
      "      cpb: bitrate max/min/avg: 0/0/0 buffer size: 0 vbv_delay: N/A\n",
      "frame=   45 fps=0.0 q=-1.0 Lsize=    1111kB time=00:00:04.20 bitrate=2167.3kbits/s speed=4.33x    \n",
      "video:1110kB audio:0kB subtitle:0kB other streams:0kB global headers:0kB muxing overhead: 0.126095%\n",
      "[libx264 @ 0x558906cf90c0] frame I:1     Avg QP:22.08  size: 47008\n",
      "[libx264 @ 0x558906cf90c0] frame P:11    Avg QP:19.18  size: 42135\n",
      "[libx264 @ 0x558906cf90c0] frame B:33    Avg QP:20.78  size: 18947\n",
      "[libx264 @ 0x558906cf90c0] consecutive B-frames:  2.2%  0.0%  0.0% 97.8%\n",
      "[libx264 @ 0x558906cf90c0] mb I  I16..4: 25.4% 48.5% 26.2%\n",
      "[libx264 @ 0x558906cf90c0] mb P  I16..4:  4.3% 26.4%  1.9%  P16..4: 20.4% 10.2%  5.5%  0.0%  0.0%    skip:31.1%\n",
      "[libx264 @ 0x558906cf90c0] mb B  I16..4:  1.6% 12.4%  0.3%  B16..8: 23.9%  6.4%  1.5%  direct: 3.8%  skip:50.1%  L0:44.9% L1:48.4% BI: 6.7%\n",
      "[libx264 @ 0x558906cf90c0] 8x8 transform intra:80.4% inter:84.2%\n",
      "[libx264 @ 0x558906cf90c0] coded y,u,v intra: 56.6% 23.9% 23.9% inter: 17.7% 9.8% 9.4%\n",
      "[libx264 @ 0x558906cf90c0] i16 v,h,dc,p: 35% 25% 27% 14%\n",
      "[libx264 @ 0x558906cf90c0] i8 v,h,dc,ddl,ddr,vr,hd,vl,hu: 19% 19% 50%  2%  2%  3%  2%  2%  3%\n",
      "[libx264 @ 0x558906cf90c0] i4 v,h,dc,ddl,ddr,vr,hd,vl,hu: 35% 32% 14%  2%  3%  4%  4%  2%  4%\n",
      "[libx264 @ 0x558906cf90c0] Weighted P-Frames: Y:0.0% UV:0.0%\n",
      "[libx264 @ 0x558906cf90c0] ref P L0: 42.0%  9.8% 29.2% 18.9%\n",
      "[libx264 @ 0x558906cf90c0] ref B L0: 71.8% 21.5%  6.7%\n",
      "[libx264 @ 0x558906cf90c0] ref B L1: 87.6% 12.4%\n",
      "[libx264 @ 0x558906cf90c0] kb/s:2019.13\n",
      "ffmpeg version 5.1.2 Copyright (c) 2000-2022 the FFmpeg developers\n",
      "  built with gcc 10.4.0 (conda-forge gcc 10.4.0-18)\n",
      "  configuration: --prefix=/home/irmak/miniconda3/envs/tactile_learning --cc=/home/conda/feedstock_root/build_artifacts/ffmpeg_1666357487580/_build_env/bin/x86_64-conda-linux-gnu-cc --cxx=/home/conda/feedstock_root/build_artifacts/ffmpeg_1666357487580/_build_env/bin/x86_64-conda-linux-gnu-c++ --nm=/home/conda/feedstock_root/build_artifacts/ffmpeg_1666357487580/_build_env/bin/x86_64-conda-linux-gnu-nm --ar=/home/conda/feedstock_root/build_artifacts/ffmpeg_1666357487580/_build_env/bin/x86_64-conda-linux-gnu-ar --disable-doc --disable-openssl --enable-demuxer=dash --enable-hardcoded-tables --enable-libfreetype --enable-libfontconfig --enable-libopenh264 --enable-gnutls --enable-libmp3lame --enable-libvpx --enable-pthreads --enable-vaapi --enable-gpl --enable-libx264 --enable-libx265 --enable-libaom --enable-libsvtav1 --enable-libxml2 --enable-pic --enable-shared --disable-static --enable-version3 --enable-zlib --pkg-config=/home/conda/feedstock_root/build_artifacts/ffmpeg_1666357487580/_build_env/bin/pkg-config\n",
      "  libavutil      57. 28.100 / 57. 28.100\n",
      "  libavcodec     59. 37.100 / 59. 37.100\n",
      "  libavformat    59. 27.100 / 59. 27.100\n",
      "  libavdevice    59.  7.100 / 59.  7.100\n",
      "  libavfilter     8. 44.100 /  8. 44.100\n",
      "  libswscale      6.  7.100 /  6.  7.100\n",
      "  libswresample   4.  7.100 /  4.  7.100\n",
      "  libpostproc    56.  6.100 / 56.  6.100\n",
      "[image2 @ 0x55c3f3b32640] Pattern type 'glob_sequence' is deprecated: use pattern_type 'glob' instead\n",
      "Input #0, image2, from '/home/irmak/Workspace/Holo-Bot/extracted_data/cup_picking/after_rss/demonstration_4/visualization/%*.png':\n",
      "  Duration: 00:00:01.56, start: 0.000000, bitrate: N/A\n",
      "  Stream #0:0: Video: png, rgba(pc), 2000x2000 [SAR 3937:3937 DAR 1:1], 25 fps, 25 tbr, 25 tbn\n",
      "Stream mapping:\n",
      "  Stream #0:0 -> #0:0 (png (native) -> h264 (libx264))\n",
      "Press [q] to stop, [?] for help\n"
     ]
    },
    {
     "name": "stdout",
     "output_type": "stream",
     "text": [
      "dumping video in root: /home/irmak/Workspace/Holo-Bot/extracted_data/cup_picking/after_rss/demonstration_4\n"
     ]
    },
    {
     "name": "stderr",
     "output_type": "stream",
     "text": [
      "[libx264 @ 0x55c3f3b39a80] using SAR=1/1\n",
      "[libx264 @ 0x55c3f3b39a80] using cpu capabilities: MMX2 SSE2Fast SSSE3 SSE4.2 AVX FMA3 BMI2 AVX2\n",
      "[libx264 @ 0x55c3f3b39a80] profile High 4:4:4 Predictive, level 4.0, 4:4:4, 8-bit\n",
      "[libx264 @ 0x55c3f3b39a80] 264 - core 164 r3095 baee400 - H.264/MPEG-4 AVC codec - Copyleft 2003-2022 - http://www.videolan.org/x264.html - options: cabac=1 ref=3 deblock=1:0:0 analyse=0x3:0x113 me=hex subme=7 psy=1 psy_rd=1.00:0.00 mixed_ref=1 me_range=16 chroma_me=1 trellis=1 8x8dct=1 cqm=0 deadzone=21,11 fast_pskip=1 chroma_qp_offset=4 threads=22 lookahead_threads=3 sliced_threads=0 nr=0 decimate=1 interlaced=0 bluray_compat=0 constrained_intra=0 bframes=3 b_pyramid=2 b_adapt=1 b_bias=0 direct=1 weightb=1 open_gop=0 weightp=2 keyint=250 keyint_min=10 scenecut=40 intra_refresh=0 rc_lookahead=40 rc=crf mbtree=1 crf=23.0 qcomp=0.60 qpmin=0 qpmax=69 qpstep=4 ip_ratio=1.40 aq=1:1.00\n",
      "Output #0, mp4, to '/home/irmak/Workspace/Holo-Bot/extracted_data/cup_picking/after_rss/demonstration_4/visualization_1.mp4':\n",
      "  Metadata:\n",
      "    encoder         : Lavf59.27.100\n",
      "  Stream #0:0: Video: h264 (avc1 / 0x31637661), yuv444p(tv, progressive), 2000x720 [SAR 1:1 DAR 25:9], q=2-31, 10 fps, 10240 tbn\n",
      "    Metadata:\n",
      "      encoder         : Lavc59.37.100 libx264\n",
      "    Side data:\n",
      "      cpb: bitrate max/min/avg: 0/0/0 buffer size: 0 vbv_delay: N/A\n",
      "frame=   39 fps=0.0 q=-1.0 Lsize=    1111kB time=00:00:03.60 bitrate=2529.1kbits/s speed=3.76x    \n",
      "video:1110kB audio:0kB subtitle:0kB other streams:0kB global headers:0kB muxing overhead: 0.118318%\n",
      "[libx264 @ 0x55c3f3b39a80] frame I:1     Avg QP:21.71  size: 48087\n",
      "[libx264 @ 0x55c3f3b39a80] frame P:10    Avg QP:19.69  size: 48230\n",
      "[libx264 @ 0x55c3f3b39a80] frame B:28    Avg QP:21.01  size: 21632\n",
      "[libx264 @ 0x55c3f3b39a80] consecutive B-frames:  2.6%  0.0% 15.4% 82.1%\n",
      "[libx264 @ 0x55c3f3b39a80] mb I  I16..4: 27.4% 46.0% 26.6%\n",
      "[libx264 @ 0x55c3f3b39a80] mb P  I16..4:  2.9% 35.4%  1.9%  P16..4: 16.1%  9.2%  5.3%  0.0%  0.0%    skip:29.3%\n",
      "[libx264 @ 0x55c3f3b39a80] mb B  I16..4:  1.2% 16.3%  0.2%  B16..8: 21.4%  6.1%  1.6%  direct: 4.3%  skip:48.9%  L0:47.7% L1:42.5% BI: 9.8%\n",
      "[libx264 @ 0x55c3f3b39a80] 8x8 transform intra:85.8% inter:82.6%\n",
      "[libx264 @ 0x55c3f3b39a80] coded y,u,v intra: 67.1% 28.1% 26.2% inter: 19.6% 10.1% 8.9%\n",
      "[libx264 @ 0x55c3f3b39a80] i16 v,h,dc,p: 40% 27% 25%  8%\n",
      "[libx264 @ 0x55c3f3b39a80] i8 v,h,dc,ddl,ddr,vr,hd,vl,hu: 18% 18% 54%  2%  1%  2%  1%  2%  2%\n",
      "[libx264 @ 0x55c3f3b39a80] i4 v,h,dc,ddl,ddr,vr,hd,vl,hu: 36% 33% 14%  2%  2%  3%  4%  2%  4%\n",
      "[libx264 @ 0x55c3f3b39a80] Weighted P-Frames: Y:0.0% UV:0.0%\n",
      "[libx264 @ 0x55c3f3b39a80] ref P L0: 43.0%  8.4% 31.3% 17.4%\n",
      "[libx264 @ 0x55c3f3b39a80] ref B L0: 74.8% 20.5%  4.8%\n",
      "[libx264 @ 0x55c3f3b39a80] ref B L1: 90.2%  9.8%\n",
      "[libx264 @ 0x55c3f3b39a80] kb/s:2330.42\n"
     ]
    }
   ],
   "source": [
    "# Turn the images to a video and delete the directory\n",
    "video_fps = 10\n",
    "for root in roots:\n",
    "    print('dumping video in root: {}'.format(root))\n",
    "    video_path = os.path.join(root, f'visualization_{view_num}.mp4')\n",
    "    if os.path.exists(video_path):\n",
    "        os.remove(video_path)\n",
    "    viz_dir = os.path.join(root, 'visualization')\n",
    "    os.system('ffmpeg -r {} -i {}/%*.png -vf scale=2000x720,setsar=1:1 {}'.format(\n",
    "        video_fps, # fps\n",
    "        viz_dir,\n",
    "        video_path\n",
    "    ))\n"
   ]
  },
  {
   "cell_type": "code",
   "execution_count": 11,
   "metadata": {},
   "outputs": [],
   "source": [
    "# Remove the img directory\n",
    "\n",
    "for root in roots:\n",
    "    viz_dir = os.path.join(root, 'visualization')\n",
    "    shutil.rmtree(viz_dir)\n"
   ]
  },
  {
   "cell_type": "code",
   "execution_count": null,
   "metadata": {},
   "outputs": [],
   "source": []
  }
 ],
 "metadata": {
  "kernelspec": {
   "display_name": "Python 3 (ipykernel)",
   "language": "python",
   "name": "python3"
  },
  "language_info": {
   "codemirror_mode": {
    "name": "ipython",
    "version": 3
   },
   "file_extension": ".py",
   "mimetype": "text/x-python",
   "name": "python",
   "nbconvert_exporter": "python",
   "pygments_lexer": "ipython3",
   "version": "3.9.13"
  },
  "vscode": {
   "interpreter": {
    "hash": "36852de55b288c46ba617fd48cf310240e4201e2f57004cbdac030fa23152bd3"
   }
  }
 },
 "nbformat": 4,
 "nbformat_minor": 4
}
